<svg width="24" height="21" viewBox="0 0 24 21" fill="none" xmlns="http://www.w3.org/2000/svg">
<g clip-path="url(#clip0_145_26971)">
<path d="M13 14.8006C12.9035 14.8006 12.8069 14.7738 12.7229 14.7204L4.22295 9.29921C4.08365 9.21037 4 9.06063 4 8.90031C4 8.73998 4.0837 8.59024 4.22295 8.5014L12.7229 3.08025C12.8907 2.97325 13.1092 2.97325 13.277 3.08025L21.777 8.5014C21.9163 8.59024 22 8.73998 22 8.90031C22 9.06063 21.9163 9.21037 21.777 9.29921L13.277 14.7204C13.1931 14.7739 13.0965 14.8006 13 14.8006ZM5.40245 8.90031L13 13.7459L20.5975 8.90031L13 4.05473L5.40245 8.90031Z" fill="#045633"/>
<path d="M18.0408 9.40998C17.9456 9.40998 17.8494 9.38254 17.7643 9.32512L13 6.11442L10.2771 7.94948C10.047 8.10446 9.73675 8.04123 9.5838 7.80853C9.4308 7.57573 9.49315 7.26141 9.723 7.10653L12.723 5.08479C12.8908 4.97174 13.1092 4.97174 13.277 5.08479L18.3183 8.48217C18.5482 8.6371 18.6105 8.95141 18.4576 9.18416C18.3612 9.33069 18.2025 9.40998 18.0408 9.40998ZM13 19C12.9035 19 12.8069 18.9717 12.7229 18.9152L4.22295 13.1869C4.08365 13.0931 4 12.9348 4 12.7654C4 12.596 4.0837 12.4378 4.22295 12.3439L7.0882 10.4131C7.256 10.3 7.47445 10.3 7.64225 10.4131L13 14.0237L18.3577 10.413C18.5255 10.3 18.744 10.3 18.9117 10.413L21.777 12.3439C21.9163 12.4377 22 12.596 22 12.7654C22 12.9348 21.9163 13.093 21.777 13.1869L13.277 18.9151C13.1931 18.9717 13.0965 19 13 19ZM5.40245 12.7654L13 17.8855L20.5975 12.7654L18.6348 11.4427L13.277 15.0533C13.1092 15.1664 12.8907 15.1664 12.7229 15.0533L7.3652 11.4427L5.40245 12.7654Z" fill="#045633"/>
</g>
<defs>
<clipPath id="clip0_145_26971">
<rect width="24" height="21" fill="white"/>
</clipPath>
</defs>
</svg>
