<svg width="24" height="22" viewBox="0 0 24 22" fill="none" xmlns="http://www.w3.org/2000/svg">
<g clip-path="url(#clip0_145_27045)">
<path d="M11.5 12.8063C11.4057 12.8063 11.3114 12.779 11.2294 12.7245L2.92866 7.20028C2.79263 7.10975 2.71094 6.95716 2.71094 6.79379C2.71094 6.63041 2.79268 6.47782 2.92866 6.38729L11.2294 0.863025C11.3933 0.753992 11.6066 0.753992 11.7705 0.863025L20.0713 6.38729C20.2073 6.47782 20.2891 6.63041 20.2891 6.79379C20.2891 6.95716 20.2073 7.10975 20.0713 7.20028L11.7705 12.7245C11.6886 12.7791 11.5943 12.8063 11.5 12.8063ZM4.08052 6.79379L11.5 11.7315L18.9194 6.79379L11.5 1.85604L4.08052 6.79379Z" fill="#045633"/>
<path d="M16.4227 7.28214C16.3297 7.28214 16.2357 7.25568 16.1526 7.2003L11.5 4.10392L8.84087 5.87364C8.61626 6.02311 8.31323 5.96212 8.16387 5.73771C8.01445 5.5132 8.07534 5.21007 8.29981 5.06071L11.2295 3.11095C11.3934 3.00192 11.6067 3.00192 11.7706 3.11095L16.6937 6.38737C16.9182 6.53678 16.9791 6.8399 16.8296 7.06437C16.7355 7.20568 16.5806 7.28214 16.4227 7.28214ZM11.5 16.5307C11.4057 16.5307 11.3114 16.5034 11.2294 16.4489L2.92866 10.9246C2.79263 10.8341 2.71094 10.6815 2.71094 10.5181C2.71094 10.3547 2.79268 10.2022 2.92866 10.1116L5.72676 8.24952C5.89063 8.14049 6.10396 8.14049 6.26782 8.24952L11.5 11.7316L16.7322 8.24947C16.896 8.14044 17.1094 8.14044 17.2732 8.24947L20.0713 10.1116C20.2073 10.2021 20.2891 10.3547 20.2891 10.5181C20.2891 10.6815 20.2073 10.834 20.0713 10.9246L11.7705 16.4489C11.6886 16.5034 11.5943 16.5307 11.5 16.5307ZM4.08052 10.5181L11.5 15.4559L18.9194 10.5181L17.0027 9.24249L11.7705 12.7246C11.6066 12.8336 11.3933 12.8336 11.2294 12.7246L5.99727 9.24249L4.08052 10.5181Z" fill="#045633"/>
<path d="M11.5 20.6188C11.4057 20.6188 11.3114 20.5916 11.2294 20.5371L2.92866 15.0127C2.79263 14.9222 2.71094 14.7696 2.71094 14.6063C2.71094 14.4429 2.79268 14.2903 2.92871 14.1998L6.00015 12.1557C6.16406 12.0467 6.37739 12.0467 6.54121 12.1557L11.5 15.4559L16.4588 12.1558C16.6227 12.0467 16.836 12.0467 16.9999 12.1558L20.0713 14.1998C20.2073 14.2903 20.2891 14.4429 20.2891 14.6063C20.2891 14.7697 20.2073 14.9223 20.0713 15.0128L11.7705 20.5371C11.6886 20.5916 11.5943 20.6188 11.5 20.6188ZM4.08052 14.6063L11.5 19.5441L18.9194 14.6063L16.7293 13.1488L11.7705 16.4489C11.6066 16.5579 11.3933 16.5579 11.2294 16.4489L6.27065 13.1488L4.08052 14.6063Z" fill="#045633"/>
</g>
<defs>
<clipPath id="clip0_145_27045">
<rect width="24" height="22" fill="white"/>
</clipPath>
</defs>
</svg>
