<svg width="25" height="25" viewBox="0 0 25 25" fill="none" xmlns="http://www.w3.org/2000/svg">
<path d="M12.5 24.2187C12.4057 24.2187 12.3114 24.1914 12.2294 24.137L3.92866 18.6127C3.79268 18.5222 3.71094 18.3696 3.71094 18.2062C3.71094 18.0428 3.79268 17.8902 3.92866 17.7997L6.63325 15.9997C6.79712 15.8908 7.01045 15.8908 7.17432 15.9997L12.5 19.5441L17.8256 15.9997C17.9895 15.8908 18.2028 15.8908 18.3666 15.9997L21.0713 17.7997C21.2073 17.8902 21.2891 18.0428 21.2891 18.2062C21.2891 18.3696 21.2073 18.5222 21.0713 18.6127L12.7705 24.137C12.6886 24.1914 12.5943 24.2187 12.5 24.2187ZM5.08052 18.2062L12.5 23.1439L19.9194 18.2062L18.0961 16.9927L12.7705 20.537C12.6066 20.646 12.3933 20.646 12.2294 20.537L6.90381 16.9928L5.08052 18.2062ZM12.5 12.8063C12.4057 12.8063 12.3114 12.779 12.2294 12.7245L3.92866 7.20028C3.79263 7.10975 3.71094 6.95717 3.71094 6.79379C3.71094 6.63041 3.79268 6.47782 3.92866 6.38729L12.2294 0.863025C12.3933 0.753992 12.6066 0.753992 12.7705 0.863025L21.0713 6.38729C21.2073 6.47782 21.2891 6.63041 21.2891 6.79379C21.2891 6.95717 21.2073 7.10975 21.0713 7.20028L12.7705 12.7245C12.6886 12.7791 12.5943 12.8063 12.5 12.8063ZM5.08052 6.79379L12.5 11.7315L19.9194 6.79379L12.5 1.85604L5.08052 6.79379Z" fill="#045633"/>
<path d="M17.4227 7.28214C17.3297 7.28214 17.2357 7.25568 17.1526 7.2003L12.5 4.10392L9.84087 5.87364C9.61626 6.02311 9.31323 5.96212 9.16387 5.73771C9.01445 5.5132 9.07534 5.21007 9.29981 5.06071L12.2295 3.11095C12.3934 3.00192 12.6067 3.00192 12.7706 3.11095L17.6937 6.38737C17.9182 6.53678 17.9791 6.8399 17.8296 7.06437C17.7355 7.20568 17.5806 7.28214 17.4227 7.28214ZM12.5 16.5307C12.4057 16.5307 12.3114 16.5034 12.2294 16.4489L3.92866 10.9246C3.79263 10.8341 3.71094 10.6815 3.71094 10.5181C3.71094 10.3547 3.79268 10.2022 3.92866 10.1116L6.72676 8.24952C6.89063 8.14049 7.10396 8.14049 7.26782 8.24952L12.5 11.7316L17.7322 8.24947C17.896 8.14044 18.1094 8.14044 18.2732 8.24947L21.0713 10.1116C21.2073 10.2021 21.2891 10.3547 21.2891 10.5181C21.2891 10.6815 21.2073 10.834 21.0713 10.9246L12.7705 16.4489C12.6886 16.5034 12.5943 16.5307 12.5 16.5307ZM5.08052 10.5181L12.5 15.4559L19.9194 10.5181L18.0027 9.24249L12.7705 12.7246C12.6066 12.8336 12.3933 12.8336 12.2294 12.7246L6.99727 9.24249L5.08052 10.5181Z" fill="#045633"/>
<path d="M12.5 20.6188C12.4057 20.6188 12.3114 20.5916 12.2294 20.5371L3.92866 15.0127C3.79263 14.9222 3.71094 14.7696 3.71094 14.6063C3.71094 14.4429 3.79268 14.2903 3.92871 14.1998L7.00015 12.1557C7.16406 12.0467 7.37739 12.0467 7.54121 12.1557L12.5 15.4559L17.4588 12.1558C17.6227 12.0467 17.836 12.0467 17.9999 12.1558L21.0713 14.1998C21.2073 14.2903 21.2891 14.4429 21.2891 14.6063C21.2891 14.7697 21.2073 14.9223 21.0713 15.0128L12.7705 20.5371C12.6886 20.5916 12.5943 20.6188 12.5 20.6188ZM5.08052 14.6063L12.5 19.5441L19.9194 14.6063L17.7293 13.1488L12.7705 16.4489C12.6066 16.5579 12.3933 16.5579 12.2294 16.4489L7.27065 13.1488L5.08052 14.6063Z" fill="#045633"/>
</svg>
