<svg width="20" height="20" viewBox="0 0 20 20" fill="none" xmlns="http://www.w3.org/2000/svg">
<path d="M8.42492 15.1249H5.2666C4.92493 15.1249 4.6416 14.8415 4.6416 14.4999V10.2332C4.6416 9.36655 5.34992 8.6582 6.21659 8.6582H8.42492C8.76658 8.6582 9.04992 8.94154 9.04992 9.2832V14.4915C9.04992 14.8415 8.76658 15.1249 8.42492 15.1249ZM5.8916 13.8749H7.79992V9.91654H6.21659C6.04159 9.91654 5.8916 10.0582 5.8916 10.2415V13.8749Z" fill="#181818"/>
<path d="M11.5751 15.125H8.41675C8.07508 15.125 7.79175 14.8417 7.79175 14.5V6.45001C7.79175 5.58335 8.50007 4.875 9.36673 4.875H10.6334C11.5001 4.875 12.2084 5.58335 12.2084 6.45001V14.5C12.2001 14.8417 11.9251 15.125 11.5751 15.125ZM9.05006 13.875H10.9584V6.45001C10.9584 6.27501 10.8168 6.125 10.6334 6.125H9.36673C9.19173 6.125 9.04175 6.26668 9.04175 6.45001V13.875H9.05006Z" fill="#181818"/>
<path d="M14.7335 15.1252H11.5752C11.2335 15.1252 10.9502 14.8419 10.9502 14.5002V10.7085C10.9502 10.3668 11.2335 10.0835 11.5752 10.0835H13.7835C14.6502 10.0835 15.3585 10.7918 15.3585 11.6585V14.5002C15.3585 14.8419 15.0835 15.1252 14.7335 15.1252ZM12.2002 13.8752H14.1085V11.6585C14.1085 11.4835 13.9669 11.3335 13.7835 11.3335H12.2002V13.8752Z" fill="#181818"/>
<path d="M12.5001 18.9582H7.50008C2.97508 18.9582 1.04175 17.0248 1.04175 12.4998V7.49984C1.04175 2.97484 2.97508 1.0415 7.50008 1.0415H12.5001C17.0251 1.0415 18.9584 2.97484 18.9584 7.49984V12.4998C18.9584 17.0248 17.0251 18.9582 12.5001 18.9582ZM7.50008 2.2915C3.65841 2.2915 2.29175 3.65817 2.29175 7.49984V12.4998C2.29175 16.3415 3.65841 17.7082 7.50008 17.7082H12.5001C16.3417 17.7082 17.7084 16.3415 17.7084 12.4998V7.49984C17.7084 3.65817 16.3417 2.2915 12.5001 2.2915H7.50008Z" fill="#181818"/>
</svg>
