<svg width="20" height="20" viewBox="0 0 20 20" fill="none" xmlns="http://www.w3.org/2000/svg">
<path d="M10.875 16.1831C10.425 16.1831 9.95003 16.1414 9.43336 16.0581L5.52503 15.4414C4.2917 15.2498 3.3417 14.9081 2.63336 14.4081C0.808363 13.1414 0.916697 10.9664 1.15003 9.44142L1.7667 5.53309C2.33336 1.94976 4.18336 0.608091 7.7667 1.16642L11.675 1.78309C13.5167 2.07476 15.9917 2.81642 16.15 5.92476C16.1834 6.45809 16.15 7.06642 16.0334 7.78309L15.425 11.6914C14.9417 14.7498 13.5167 16.1831 10.875 16.1831ZM6.27503 2.29142C4.2917 2.29142 3.3917 3.29976 3.00003 5.73309L2.38336 9.64142C2.00003 12.0998 2.70003 12.9331 3.35003 13.3914C3.90003 13.7831 4.67503 14.0498 5.7167 14.2081L9.62503 14.8248C12.5334 15.2831 13.7334 14.4081 14.1917 11.4914L14.8 7.58309C14.9 6.95809 14.9334 6.43309 14.9 5.99142V5.98309C14.8084 4.23309 13.8167 3.37476 11.475 3.00809L7.57503 2.39976C7.0917 2.32476 6.6667 2.29142 6.27503 2.29142Z" fill="#333333"/>
<path d="M12.2333 18.9585C11.525 18.9585 10.725 18.8085 9.79997 18.5001L6.04163 17.2501C3.89997 16.5418 2.74163 15.5251 2.39163 14.0418C2.3333 13.7918 2.4333 13.5251 2.64997 13.3835C2.86663 13.2418 3.14997 13.2418 3.3583 13.3918C3.9083 13.7835 4.67497 14.0501 5.71663 14.2085L9.62497 14.8251C12.5333 15.2835 13.7333 14.4085 14.1916 11.4918L14.8 7.58345C14.9 6.95845 14.9333 6.43345 14.9 5.99179C14.8916 5.77512 15 5.55845 15.1916 5.43345C15.3833 5.30845 15.625 5.30012 15.825 5.40845C18.0583 6.60012 18.65 8.50845 17.6833 11.4251L16.4333 15.1835C15.8416 16.9501 15.0666 18.0335 13.9833 18.5751C13.4583 18.8335 12.8833 18.9585 12.2333 18.9585ZM4.77497 15.3001C5.17497 15.5668 5.7083 15.8251 6.4333 16.0668L10.1916 17.3168C11.625 17.7918 12.65 17.8335 13.4166 17.4585C14.1833 17.0751 14.7666 16.2251 15.2416 14.7918L16.4916 11.0335C17.175 8.96679 16.9083 7.86679 16.1166 7.12512C16.1 7.33345 16.0666 7.55012 16.0333 7.78345L15.425 11.6918C14.8583 15.2751 13.0083 16.6168 9.42497 16.0668L5.51663 15.4501C5.2583 15.4001 5.0083 15.3501 4.77497 15.3001Z" fill="#333333"/>
<path d="M6.86663 8.1002C5.72496 8.1002 4.79163 7.16686 4.79163 6.0252C4.79163 4.88353 5.72496 3.9502 6.86663 3.9502C8.00829 3.9502 8.94163 4.88353 8.94163 6.0252C8.94163 7.16686 8.00829 8.1002 6.86663 8.1002ZM6.86663 5.20853C6.41663 5.20853 6.04163 5.5752 6.04163 6.03353C6.04163 6.49186 6.40829 6.85853 6.86663 6.85853C7.31663 6.85853 7.69163 6.49186 7.69163 6.03353C7.69163 5.5752 7.31663 5.20853 6.86663 5.20853Z" fill="#333333"/>
</svg>
