<svg width="20" height="20" viewBox="0 0 20 20" fill="none" xmlns="http://www.w3.org/2000/svg">
<path d="M13.3334 18.9582H7.50004C4.63337 18.9582 2.70837 17.0332 2.70837 14.1665V5.83317C2.70837 2.9665 4.63337 1.0415 7.50004 1.0415H13.3334C16.2 1.0415 18.125 2.9665 18.125 5.83317V14.1665C18.125 17.0332 16.2 18.9582 13.3334 18.9582ZM7.50004 2.2915C5.35004 2.2915 3.95837 3.68317 3.95837 5.83317V14.1665C3.95837 16.3165 5.35004 17.7082 7.50004 17.7082H13.3334C15.4834 17.7082 16.875 16.3165 16.875 14.1665V5.83317C16.875 3.68317 15.4834 2.2915 13.3334 2.2915H7.50004Z" fill="#333333"/>
<path d="M17.5 13.125H3.33337C2.99171 13.125 2.70837 12.8417 2.70837 12.5C2.70837 12.1583 2.99171 11.875 3.33337 11.875H17.5C17.8417 11.875 18.125 12.1583 18.125 12.5C18.125 12.8417 17.8417 13.125 17.5 13.125Z" fill="#333333"/>
<path d="M6.66671 10.625H5.83337C5.49171 10.625 5.20837 10.3417 5.20837 10C5.20837 9.65833 5.49171 9.375 5.83337 9.375H6.66671C7.00837 9.375 7.29171 9.65833 7.29171 10C7.29171 10.3417 7.00837 10.625 6.66671 10.625Z" fill="#333333"/>
<path d="M6.66671 8.5415H5.83337C5.49171 8.5415 5.20837 8.25817 5.20837 7.9165C5.20837 7.57484 5.49171 7.2915 5.83337 7.2915H6.66671C7.00837 7.2915 7.29171 7.57484 7.29171 7.9165C7.29171 8.25817 7.00837 8.5415 6.66671 8.5415Z" fill="#333333"/>
<path d="M6.66671 6.4585H5.83337C5.49171 6.4585 5.20837 6.17516 5.20837 5.8335C5.20837 5.49183 5.49171 5.2085 5.83337 5.2085H6.66671C7.00837 5.2085 7.29171 5.49183 7.29171 5.8335C7.29171 6.17516 7.00837 6.4585 6.66671 6.4585Z" fill="#333333"/>
<path d="M14.1667 16.2497C13.95 16.2497 13.7334 16.1581 13.575 16.0081C13.425 15.8497 13.3334 15.6331 13.3334 15.4164C13.3334 15.1914 13.425 14.9831 13.575 14.8247C13.8084 14.5914 14.175 14.5164 14.4834 14.6497C14.5834 14.6914 14.675 14.7497 14.7584 14.8247C14.9084 14.9831 15 15.1997 15 15.4164C15 15.6331 14.9084 15.8497 14.7584 16.0081C14.675 16.0831 14.5917 16.1414 14.4834 16.1831C14.3834 16.2247 14.275 16.2497 14.1667 16.2497Z" fill="#333333"/>
</svg>
