<svg width="20" height="20" viewBox="0 0 20 20" fill="none" xmlns="http://www.w3.org/2000/svg">
<path d="M14.825 18.9581H5.17496C2.89163 18.9581 1.04163 17.0998 1.04163 14.8165V8.64148C1.04163 7.50815 1.74163 6.08315 2.64163 5.38315L7.13329 1.88315C8.48329 0.833149 10.6416 0.783149 12.0416 1.76648L17.1916 5.37481C18.1833 6.06648 18.9583 7.54982 18.9583 8.75815V14.8248C18.9583 17.0998 17.1083 18.9581 14.825 18.9581ZM7.89996 2.86648L3.40829 6.36648C2.81663 6.83315 2.29163 7.89148 2.29163 8.64148V14.8165C2.29163 16.4081 3.58329 17.7081 5.17496 17.7081H14.825C16.4166 17.7081 17.7083 16.4165 17.7083 14.8248V8.75815C17.7083 7.95815 17.1333 6.84981 16.475 6.39982L11.325 2.79148C10.375 2.12482 8.80829 2.15815 7.89996 2.86648Z" fill="#333333"/>
<path d="M10 15.625C9.65833 15.625 9.375 15.3417 9.375 15V12.5C9.375 12.1583 9.65833 11.875 10 11.875C10.3417 11.875 10.625 12.1583 10.625 12.5V15C10.625 15.3417 10.3417 15.625 10 15.625Z" fill="#333333"/>
</svg>
