<svg width="21" height="20" viewBox="0 0 21 20" fill="none" xmlns="http://www.w3.org/2000/svg">
<path d="M10.4 12.4916C10.2417 12.4916 10.0833 12.4333 9.95832 12.3083L7.82499 10.1749C7.58332 9.93327 7.58332 9.53327 7.82499 9.2916C8.06665 9.04993 8.46666 9.04993 8.70832 9.2916L10.4 10.9833L12.0917 9.2916C12.3333 9.04993 12.7333 9.04993 12.975 9.2916C13.2167 9.53327 13.2167 9.93327 12.975 10.1749L10.8417 12.3083C10.7167 12.4333 10.5583 12.4916 10.4 12.4916Z" fill="#181818"/>
<path d="M10.3999 12.4335C10.0582 12.4335 9.7749 12.1502 9.7749 11.8085V3.3335C9.7749 2.99183 10.0582 2.7085 10.3999 2.7085C10.7416 2.7085 11.0249 2.99183 11.0249 3.3335V11.8085C11.0249 12.1502 10.7416 12.4335 10.3999 12.4335Z" fill="#181818"/>
<path d="M10.5 17.4421C6.20831 17.4421 3.20831 14.4421 3.20831 10.1504C3.20831 9.80872 3.49165 9.52539 3.83331 9.52539C4.17498 9.52539 4.45831 9.80872 4.45831 10.1504C4.45831 13.7087 6.94165 16.1921 10.5 16.1921C14.0583 16.1921 16.5416 13.7087 16.5416 10.1504C16.5416 9.80872 16.825 9.52539 17.1666 9.52539C17.5083 9.52539 17.7916 9.80872 17.7916 10.1504C17.7916 14.4421 14.7916 17.4421 10.5 17.4421Z" fill="#181818"/>
</svg>
