<svg width="20" height="20" viewBox="0 0 20 20" fill="none" xmlns="http://www.w3.org/2000/svg">
<path d="M13.1751 16.8166C12.9584 16.8166 12.7334 16.8083 12.4917 16.7833C12.0584 16.7499 11.5667 16.6666 11.0584 16.5416L9.65839 16.2083C5.81673 15.2999 4.55839 13.2666 5.45839 9.43326L6.27506 5.9416C6.45839 5.14993 6.67506 4.50826 6.94173 3.97493C8.37506 1.0166 11.1167 1.28326 13.0667 1.7416L14.4584 2.0666C16.4084 2.52493 17.6417 3.24993 18.3334 4.35826C19.0167 5.4666 19.1251 6.8916 18.6667 8.8416L17.8501 12.3249C17.1334 15.3749 15.6417 16.8166 13.1751 16.8166ZM10.9334 2.70826C9.54173 2.70826 8.65839 3.28326 8.06673 4.5166C7.85006 4.9666 7.65839 5.52493 7.49173 6.22493L6.67506 9.7166C5.93339 12.8666 6.79173 14.2416 9.94173 14.9916L11.3417 15.3249C11.7917 15.4333 12.2167 15.4999 12.6001 15.5333C14.8667 15.7583 15.9917 14.7666 16.6251 12.0416L17.4417 8.55827C17.8167 6.94993 17.7667 5.82493 17.2667 5.0166C16.7667 4.20826 15.7834 3.65826 14.1667 3.28326L12.7751 2.95826C12.0834 2.7916 11.4667 2.70826 10.9334 2.70826Z" fill="#333333"/>
<path d="M6.94167 18.5419C4.8 18.5419 3.43334 17.2586 2.55834 14.5502L1.49167 11.2586C0.308336 7.59189 1.36667 5.52523 5.01667 4.34189L6.33333 3.91689C6.76667 3.78356 7.09167 3.69189 7.38333 3.64189C7.625 3.59189 7.85834 3.68356 8 3.87523C8.14167 4.06689 8.16667 4.31689 8.06667 4.53356C7.85 4.97522 7.65833 5.53356 7.5 6.23356L6.68334 9.72522C5.94167 12.8752 6.8 14.2502 9.95 15.0002L11.35 15.3336C11.8 15.4419 12.225 15.5086 12.6083 15.5419C12.875 15.5669 13.0917 15.7502 13.1667 16.0086C13.2333 16.2669 13.1333 16.5336 12.9167 16.6836C12.3667 17.0586 11.675 17.3752 10.8 17.6586L9.48333 18.0919C8.525 18.3919 7.69167 18.5419 6.94167 18.5419ZM6.48334 5.18356L5.40833 5.53356C2.43334 6.49189 1.725 7.89189 2.68334 10.8752L3.75 14.1669C4.71667 17.1419 6.11667 17.8586 9.09167 16.9002L10.4083 16.4669C10.4583 16.4502 10.5 16.4336 10.55 16.4169L9.66667 16.2086C5.825 15.3002 4.56667 13.2669 5.46667 9.43356L6.28334 5.94189C6.34167 5.67523 6.40834 5.41689 6.48334 5.18356Z" fill="#333333"/>
<path d="M14.5751 8.75815C14.5251 8.75815 14.4751 8.74981 14.4168 8.74148L10.3751 7.71648C10.0418 7.63315 9.84181 7.29148 9.92514 6.95815C10.0085 6.62481 10.3501 6.42481 10.6835 6.50815L14.7251 7.53315C15.0585 7.61648 15.2585 7.95815 15.1751 8.29148C15.1085 8.56648 14.8501 8.75815 14.5751 8.75815Z" fill="#333333"/>
<path d="M12.1333 11.5749C12.0833 11.5749 12.0333 11.5666 11.9749 11.5582L9.54994 10.9416C9.21661 10.8582 9.01661 10.5166 9.09994 10.1832C9.18328 9.84991 9.52494 9.64991 9.85828 9.73325L12.2833 10.3499C12.6166 10.4332 12.8166 10.7749 12.7333 11.1082C12.6666 11.3916 12.4166 11.5749 12.1333 11.5749Z" fill="#333333"/>
</svg>
