<svg width="38" height="38" viewBox="0 0 38 38" fill="none" xmlns="http://www.w3.org/2000/svg">
<g clip-path="url(#clip0_985_33107)">
<path d="M14.0511 7.11004C14.1055 7.11001 14.1595 7.10016 14.2105 7.08098C14.2786 7.05534 14.3467 7.03037 14.4157 7.00583C14.4718 6.98597 14.5234 6.95524 14.5676 6.9154C14.6119 6.87556 14.6478 6.82739 14.6734 6.77364C14.6989 6.7199 14.7137 6.66164 14.7167 6.60219C14.7197 6.54275 14.711 6.48329 14.6911 6.42722C14.6711 6.37115 14.6402 6.31957 14.6003 6.27543C14.5604 6.23129 14.5121 6.19546 14.4584 6.16999C14.4046 6.14452 14.3463 6.12991 14.2868 6.12699C14.2274 6.12407 14.1679 6.13291 14.1119 6.15299C14.038 6.17929 13.9646 6.20618 13.8917 6.23366C13.7924 6.27097 13.7094 6.34193 13.6572 6.43417C13.6049 6.52641 13.5866 6.63407 13.6056 6.73838C13.6246 6.84269 13.6796 6.93703 13.761 7.00495C13.8424 7.07288 13.9451 7.11006 14.0511 7.11004H14.0511Z" fill="#111858"/>
<path d="M8.50898 10.9118C8.57284 10.9119 8.63599 10.8985 8.69427 10.8724C8.75255 10.8463 8.80462 10.8081 8.84704 10.7604C8.89546 10.7063 8.94439 10.6524 8.99384 10.5987C9.07531 10.5106 9.11841 10.3936 9.11366 10.2736C9.10891 10.1537 9.05669 10.0405 8.9685 9.95903C8.88031 9.87756 8.76337 9.83446 8.6434 9.83921C8.52343 9.84396 8.41026 9.89618 8.32879 9.98437C8.27573 10.0418 8.22326 10.0997 8.17138 10.158C8.11326 10.2231 8.07522 10.3037 8.06186 10.39C8.04849 10.4762 8.06036 10.5645 8.09605 10.6442C8.13173 10.7239 8.1897 10.7915 8.26297 10.839C8.33624 10.8865 8.42167 10.9118 8.50898 10.9118H8.50898ZM7.37346 26.8433C7.34257 26.7924 7.30197 26.7482 7.25398 26.7131C7.206 26.678 7.15156 26.6527 7.09379 26.6386C7.03602 26.6245 6.97604 26.6219 6.91727 26.631C6.85851 26.6401 6.80211 26.6607 6.7513 26.6916C6.70049 26.7225 6.65626 26.7631 6.62115 26.8111C6.58603 26.8591 6.5607 26.9135 6.54662 26.9713C6.53254 27.029 6.52997 27.089 6.53907 27.1478C6.54817 27.2066 6.56875 27.2629 6.59965 27.3138C6.6401 27.3803 6.68115 27.4464 6.72279 27.5122C6.75454 27.5625 6.79588 27.606 6.84445 27.6403C6.89301 27.6745 6.94785 27.6989 7.00584 27.712C7.06383 27.7251 7.12383 27.7266 7.18241 27.7165C7.24099 27.7064 7.29701 27.6849 7.34727 27.6531C7.39752 27.6214 7.44104 27.5801 7.47532 27.5315C7.5096 27.4829 7.53398 27.4281 7.54707 27.3701C7.56015 27.3121 7.56169 27.2521 7.55159 27.1935C7.54149 27.1349 7.51995 27.0789 7.4882 27.0287C7.44952 26.9672 7.41127 26.9054 7.37346 26.8433ZM12.0082 8.07249C12.0872 8.07249 12.1648 8.05172 12.2333 8.01227C12.2967 7.97581 12.3604 7.93993 12.4243 7.90464C12.5289 7.84613 12.6061 7.74851 12.6388 7.6332C12.6716 7.51789 12.6572 7.39429 12.599 7.28953C12.5407 7.18476 12.4433 7.10736 12.3281 7.07432C12.2129 7.04127 12.0893 7.05527 11.9843 7.11324C11.9169 7.15082 11.8492 7.18883 11.7822 7.2274C11.6957 7.27707 11.628 7.35396 11.5897 7.44608C11.5514 7.53821 11.5446 7.64042 11.5703 7.73682C11.5961 7.83321 11.653 7.91839 11.7322 7.97909C11.8114 8.0398 11.9084 8.07264 12.0082 8.07249L12.0082 8.07249ZM4.96047 19.0844C4.97308 19.0855 4.98567 19.0859 4.99805 19.0859C5.1116 19.0858 5.22096 19.043 5.30446 18.9661C5.38796 18.8891 5.43949 18.7836 5.44885 18.6704C5.45482 18.5974 5.46138 18.5245 5.46853 18.4519C5.47992 18.3325 5.44348 18.2135 5.36721 18.1209C5.29095 18.0284 5.18108 17.9699 5.06173 17.9583C4.94238 17.9467 4.82329 17.9829 4.7306 18.059C4.63792 18.135 4.5792 18.2448 4.56735 18.3641C4.55983 18.4413 4.55282 18.5186 4.54634 18.5962C4.54146 18.6554 4.54831 18.7151 4.56648 18.7717C4.58466 18.8283 4.61381 18.8807 4.65227 18.9261C4.69072 18.9714 4.73774 19.0087 4.79062 19.0359C4.8435 19.063 4.90122 19.0795 4.96047 19.0844ZM5.78714 23.0174C5.76989 22.947 5.7533 22.8763 5.73737 22.8054C5.71091 22.6883 5.63905 22.5865 5.53759 22.5224C5.43613 22.4583 5.31337 22.4371 5.19628 22.4635C5.07919 22.4898 4.97736 22.5616 4.91316 22.663C4.84896 22.7644 4.82765 22.8871 4.8539 23.0043C4.87114 23.0806 4.88905 23.1567 4.90762 23.2327C4.93622 23.3492 5.00994 23.4497 5.11257 23.5119C5.2152 23.5741 5.33835 23.5931 5.45493 23.5645C5.57151 23.536 5.672 23.4623 5.73429 23.3597C5.79659 23.2571 5.81559 23.134 5.78713 23.0174H5.78714Z" fill="#2D4356"/>
<path d="M5.02679 21.3445C5.14651 21.3354 5.2577 21.2791 5.3359 21.188C5.41409 21.0968 5.4529 20.9784 5.44377 20.8587C5.43825 20.7859 5.43293 20.7129 5.42852 20.6398C5.42113 20.5199 5.36644 20.4079 5.27646 20.3284C5.18649 20.2489 5.06861 20.2083 4.94876 20.2157C4.8289 20.2231 4.71689 20.2778 4.63736 20.3678C4.55784 20.4577 4.51731 20.5756 4.52469 20.6955C4.52955 20.773 4.53493 20.8505 4.54083 20.9279C4.54957 21.0415 4.60087 21.1477 4.68448 21.2252C4.76809 21.3027 4.87786 21.3458 4.99185 21.3459C5.00336 21.3459 5.01507 21.3454 5.02679 21.3445ZM6.39115 24.891C6.34551 24.7805 6.25798 24.6925 6.14768 24.6462C6.03737 24.6 5.91325 24.5993 5.80242 24.6442C5.69158 24.6892 5.60302 24.7761 5.55608 24.8861C5.50914 24.9961 5.50763 25.1203 5.55188 25.2314C5.58129 25.3034 5.61092 25.3752 5.64142 25.4466C5.68881 25.5565 5.77779 25.6432 5.88891 25.6877C6.00002 25.7322 6.12423 25.7308 6.23436 25.6839C6.34448 25.6371 6.43157 25.5485 6.47657 25.4376C6.52157 25.3267 6.52082 25.2025 6.47448 25.0922C6.44619 25.0254 6.41841 24.9584 6.39115 24.891ZM5.25451 16.8425C5.31222 16.8569 5.3722 16.8597 5.43101 16.8509C5.48982 16.842 5.54631 16.8217 5.59724 16.791C5.64817 16.7603 5.69254 16.7198 5.72782 16.6719C5.7631 16.624 5.78858 16.5697 5.80282 16.5119C5.82029 16.4413 5.83841 16.371 5.85721 16.3009C5.8879 16.1849 5.87135 16.0615 5.81117 15.9578C5.75099 15.854 5.65211 15.7784 5.53622 15.7474C5.42033 15.7165 5.29691 15.7328 5.19303 15.7928C5.08915 15.8527 5.0133 15.9515 4.98213 16.0673C4.96201 16.1428 4.94255 16.2185 4.92376 16.2945C4.90947 16.3522 4.90669 16.4121 4.91558 16.4709C4.92447 16.5297 4.94485 16.5861 4.97557 16.637C5.00628 16.6879 5.04673 16.7323 5.09459 16.7675C5.14245 16.8028 5.19679 16.8283 5.25451 16.8425Z" fill="#111858"/>
<path d="M5.90631 14.676C5.96094 14.6995 6.01966 14.712 6.07912 14.7127C6.13859 14.7135 6.19762 14.7026 6.25285 14.6805C6.30809 14.6585 6.35843 14.6258 6.40102 14.5843C6.4436 14.5428 6.47759 14.4933 6.50103 14.4386C6.53 14.3713 6.55948 14.3043 6.58947 14.2376C6.6384 14.1281 6.64184 14.0036 6.59906 13.8915C6.55627 13.7794 6.47075 13.6888 6.36127 13.6397C6.25179 13.5906 6.1273 13.587 6.01513 13.6296C5.90297 13.6722 5.8123 13.7576 5.76303 13.867C5.7312 13.9382 5.69958 14.0098 5.66885 14.0815C5.6454 14.1361 5.63295 14.1948 5.63219 14.2543C5.63144 14.3137 5.6424 14.3727 5.66445 14.4279C5.6865 14.4831 5.71921 14.5334 5.7607 14.576C5.8022 14.6186 5.85168 14.6525 5.90631 14.676Z" fill="#2D4356"/>
<path d="M10.1448 9.3512C10.2487 9.35136 10.3493 9.31564 10.4298 9.2501C10.4864 9.20413 10.5433 9.15871 10.6005 9.11385C10.6475 9.07725 10.6868 9.03173 10.7161 8.97992C10.7455 8.9281 10.7643 8.87101 10.7716 8.8119C10.7788 8.75279 10.7743 8.69284 10.7584 8.63546C10.7424 8.57809 10.7153 8.52444 10.6785 8.47757C10.6418 8.4307 10.5962 8.39154 10.5443 8.36234C10.4924 8.33313 10.4352 8.31445 10.3761 8.30737C10.317 8.30029 10.257 8.30495 10.1997 8.32107C10.1424 8.3372 10.0888 8.36448 10.042 8.40135C9.98079 8.44931 9.91992 8.4979 9.85941 8.54711C9.78676 8.60604 9.73416 8.68604 9.70884 8.7761C9.68351 8.86616 9.68672 8.96185 9.71802 9.05001C9.74931 9.13817 9.80715 9.21447 9.88359 9.26841C9.96002 9.32235 10.0513 9.35128 10.1448 9.35122V9.3512ZM31.8943 15.5521C31.9168 15.6214 31.9392 15.6909 31.9606 15.7606C31.9962 15.8752 32.0758 15.971 32.182 16.0269C32.2881 16.0828 32.4121 16.0944 32.5268 16.0589C32.6414 16.0235 32.7373 15.944 32.7934 15.838C32.8495 15.7319 32.8612 15.6079 32.826 15.4932C32.8027 15.4186 32.779 15.3444 32.7548 15.2706C32.7174 15.1565 32.6363 15.0619 32.5292 15.0076C32.4221 14.9533 32.2979 14.9438 32.1837 14.9811C32.0696 15.0184 31.975 15.0996 31.9207 15.2067C31.8665 15.3138 31.8569 15.438 31.8943 15.5521V15.5521Z" fill="#111858"/>
<path d="M31.1439 13.7322C31.1976 13.8394 31.2916 13.9209 31.4054 13.9588C31.5191 13.9968 31.6432 13.9881 31.7506 13.9346C31.8579 13.8812 31.9396 13.7873 31.9778 13.6737C32.016 13.56 32.0076 13.4359 31.9544 13.3284C31.9197 13.2586 31.8843 13.1892 31.8481 13.1202C31.7926 13.0138 31.6971 12.9337 31.5826 12.8976C31.4681 12.8615 31.344 12.8724 31.2375 12.9278C31.131 12.9833 31.0509 13.0787 31.0148 13.1932C30.9787 13.3077 30.9896 13.4319 31.0451 13.5384C31.0785 13.6026 31.1114 13.6672 31.1439 13.7322ZM28.5936 10.1971C28.6356 10.2392 28.6854 10.2726 28.7403 10.2954C28.7952 10.3183 28.8541 10.3301 28.9135 10.3301C28.973 10.3302 29.0319 10.3186 29.0869 10.2959C29.1418 10.2732 29.1918 10.24 29.2339 10.198C29.276 10.156 29.3094 10.1061 29.3322 10.0512C29.355 9.99635 29.3668 9.9375 29.3669 9.87804C29.367 9.81859 29.3554 9.7597 29.3327 9.70474C29.31 9.64978 29.2768 9.59982 29.2348 9.55772C29.1797 9.50258 29.1241 9.44788 29.0681 9.39363C29.0254 9.35218 28.975 9.31955 28.9197 9.29759C28.8644 9.27564 28.8054 9.2648 28.7459 9.26569C28.6864 9.26658 28.6277 9.27919 28.5731 9.30279C28.5185 9.32638 28.4691 9.36051 28.4277 9.40322C28.3863 9.44592 28.3537 9.49637 28.3318 9.55168C28.3099 9.60698 28.2991 9.66606 28.3001 9.72554C28.301 9.78501 28.3137 9.84371 28.3374 9.89829C28.361 9.95286 28.3952 10.0022 28.438 10.0436C28.4901 10.0943 28.542 10.1455 28.5936 10.1971ZM32.4065 17.6788C32.4178 17.7505 32.4284 17.8224 32.4384 17.8944C32.4549 18.0133 32.518 18.1209 32.6138 18.1933C32.7096 18.2657 32.8302 18.2972 32.9492 18.2807C33.0681 18.2642 33.1756 18.2011 33.2481 18.1053C33.3206 18.0096 33.352 17.8889 33.3356 17.77C33.3247 17.6924 33.3132 17.6151 33.3011 17.538C33.2822 17.4196 33.2171 17.3135 33.1201 17.243C33.0231 17.1725 32.902 17.1433 32.7835 17.162C32.6651 17.1806 32.5588 17.2455 32.4881 17.3424C32.4175 17.4393 32.3881 17.5603 32.4065 17.6788V17.6788ZM16.2246 6.48958C16.2545 6.48957 16.2843 6.4866 16.3135 6.48074C16.3849 6.46649 16.4566 6.45289 16.5289 6.43964C16.5874 6.42899 16.6432 6.40692 16.6931 6.37468C16.7431 6.34245 16.7862 6.30069 16.8201 6.25178C16.8539 6.20288 16.8777 6.14779 16.8902 6.08966C16.9028 6.03153 16.9037 5.97151 16.893 5.91301C16.8823 5.85452 16.8602 5.79871 16.8279 5.74877C16.7957 5.69883 16.7539 5.65573 16.7049 5.62195C16.656 5.58816 16.6009 5.56435 16.5428 5.55188C16.4846 5.5394 16.4246 5.5385 16.3661 5.54923C16.2894 5.56315 16.2129 5.57773 16.1366 5.59298C16.0264 5.61487 15.9283 5.67697 15.8613 5.7672C15.7944 5.85743 15.7634 5.96933 15.7744 6.08115C15.7853 6.19298 15.8375 6.29672 15.9207 6.37221C16.0039 6.4477 16.1123 6.48954 16.2246 6.48959L16.2246 6.48958ZM20.673 6.32151C20.7455 6.33046 20.818 6.34 20.8905 6.35013C20.9494 6.35838 21.0093 6.35495 21.0668 6.34005C21.1244 6.32514 21.1784 6.29905 21.2259 6.26326C21.2733 6.22747 21.3132 6.18269 21.3434 6.13147C21.3735 6.08025 21.3933 6.02359 21.4015 5.96473C21.4098 5.90587 21.4064 5.84597 21.3914 5.78843C21.3765 5.7309 21.3505 5.67687 21.3147 5.62942C21.2789 5.58197 21.2341 5.54203 21.1829 5.51189C21.1316 5.48174 21.075 5.46199 21.0161 5.45374C20.9388 5.44292 20.8618 5.43274 20.7844 5.42313C20.7254 5.41569 20.6654 5.41997 20.608 5.43572C20.5507 5.45147 20.4969 5.47838 20.45 5.51492C20.403 5.55146 20.3637 5.5969 20.3343 5.64865C20.3049 5.7004 20.286 5.75744 20.2786 5.8165C20.2713 5.87556 20.2757 5.93549 20.2916 5.99285C20.3074 6.05021 20.3345 6.10388 20.3711 6.15079C20.4077 6.19769 20.4532 6.23692 20.505 6.26621C20.5568 6.29551 20.6139 6.31429 20.673 6.3215L20.673 6.32151Z" fill="#2D4356"/>
<path d="M26.749 8.65173C26.8089 8.69362 26.8686 8.73594 26.9279 8.7787C27.0252 8.84867 27.1464 8.87717 27.2647 8.85796C27.383 8.83874 27.4889 8.77337 27.5591 8.6762C27.6293 8.57902 27.6581 8.45796 27.6391 8.33959C27.6202 8.22121 27.5551 8.11518 27.4581 8.04476C27.3948 7.99913 27.3312 7.95408 27.2673 7.90962C27.2185 7.87549 27.1636 7.8513 27.1055 7.83843C27.0474 7.82557 26.9874 7.82428 26.9288 7.83464C26.8702 7.845 26.8142 7.86681 26.7641 7.89882C26.714 7.93083 26.6706 7.97241 26.6366 8.02118C26.6025 8.06996 26.5784 8.12497 26.5656 8.18306C26.5528 8.24116 26.5516 8.30121 26.5621 8.35978C26.5725 8.41834 26.5944 8.47427 26.6265 8.52437C26.6586 8.57446 26.7002 8.61774 26.749 8.65173H26.749ZM18.4703 6.22725C18.4758 6.22725 18.4815 6.22714 18.4871 6.22692C18.5598 6.22427 18.6326 6.22221 18.7055 6.22074C18.7651 6.21977 18.8239 6.20705 18.8786 6.1833C18.9332 6.15954 18.9827 6.12522 19.024 6.08231C19.0654 6.0394 19.0979 5.98875 19.1196 5.93325C19.1413 5.87775 19.1519 5.81851 19.1507 5.75892C19.1495 5.69933 19.1365 5.64057 19.1125 5.58601C19.0885 5.53145 19.054 5.48217 19.0109 5.44099C18.9678 5.39981 18.917 5.36755 18.8614 5.34606C18.8058 5.32457 18.7465 5.31427 18.6869 5.31575C18.6091 5.31729 18.5314 5.3195 18.4539 5.32238C18.3354 5.32672 18.2233 5.37739 18.1418 5.4635C18.0603 5.54961 18.0158 5.66428 18.0179 5.78284C18.0201 5.90141 18.0687 6.01439 18.1533 6.0975C18.2378 6.18061 18.3517 6.2272 18.4703 6.22725ZM22.8156 6.76473C22.8855 6.78516 22.955 6.80619 23.0243 6.82782C23.0811 6.84572 23.1408 6.85224 23.2001 6.84701C23.2595 6.84178 23.3171 6.8249 23.3699 6.79734C23.4227 6.76979 23.4695 6.73209 23.5077 6.68642C23.5459 6.64074 23.5747 6.58799 23.5924 6.53117C23.6102 6.47434 23.6166 6.41458 23.6112 6.35529C23.6059 6.296 23.5888 6.23835 23.5612 6.18564C23.5335 6.13293 23.4957 6.0862 23.4499 6.04812C23.4042 6.01004 23.3514 5.98136 23.2945 5.96372C23.22 5.94051 23.1451 5.91793 23.0699 5.89598C23.0127 5.87888 22.9527 5.87326 22.8934 5.87943C22.834 5.8856 22.7765 5.90344 22.7241 5.93192C22.6717 5.96041 22.6254 5.99897 22.5879 6.04541C22.5505 6.09184 22.5226 6.14522 22.5058 6.20248C22.489 6.25974 22.4838 6.31974 22.4903 6.37905C22.4968 6.43835 22.515 6.49578 22.5438 6.54803C22.5726 6.60029 22.6114 6.64633 22.6581 6.68352C22.7047 6.72071 22.7582 6.74831 22.8156 6.76473H22.8156Z" fill="#111858"/>
<path d="M24.8589 7.54872C24.9248 7.58021 24.9903 7.61229 25.0555 7.64497C25.1087 7.67207 25.1667 7.68838 25.2262 7.69297C25.2857 7.69756 25.3455 7.69034 25.4022 7.67172C25.4589 7.65311 25.5113 7.62346 25.5565 7.58449C25.6017 7.54552 25.6388 7.498 25.6655 7.44466C25.6923 7.39132 25.7082 7.33322 25.7125 7.27369C25.7167 7.21417 25.7091 7.15439 25.6901 7.09781C25.6711 7.04123 25.6412 6.98896 25.6019 6.94401C25.5627 6.89906 25.5149 6.86232 25.4614 6.83589C25.3913 6.80075 25.3209 6.76625 25.2503 6.73236C25.1966 6.70641 25.1384 6.69131 25.0789 6.68791C25.0194 6.68452 24.9599 6.6929 24.9036 6.71258C24.8474 6.73226 24.7956 6.76284 24.7512 6.80259C24.7068 6.84233 24.6707 6.89045 24.6449 6.94417C24.6192 6.9979 24.6043 7.05619 24.6011 7.11569C24.5979 7.17518 24.6065 7.23472 24.6264 7.29089C24.6463 7.34706 24.6771 7.39875 24.717 7.44299C24.7569 7.48724 24.8051 7.52317 24.859 7.54873L24.8589 7.54872Z" fill="#2D4356"/>
<path d="M7.51717 11.694C7.41704 11.6278 7.2947 11.604 7.17704 11.6279C7.05939 11.6518 6.95604 11.7215 6.88971 11.8215C6.8466 11.8867 6.80408 11.9521 6.76214 12.0178C6.73015 12.0679 6.70833 12.1238 6.69795 12.1824C6.68757 12.2409 6.68882 12.3009 6.70163 12.359C6.71444 12.417 6.73856 12.472 6.77262 12.5208C6.80667 12.5695 6.84999 12.611 6.90011 12.643C6.95022 12.675 7.00614 12.6969 7.06469 12.7072C7.12323 12.7176 7.18325 12.7164 7.24131 12.7036C7.29937 12.6907 7.35434 12.6666 7.40308 12.6326C7.45181 12.5985 7.49337 12.5552 7.52536 12.5051C7.56472 12.4435 7.60459 12.3823 7.64498 12.3212C7.6778 12.2717 7.70053 12.2161 7.71187 12.1578C7.7232 12.0994 7.72293 12.0394 7.71106 11.9811C7.69919 11.9229 7.67596 11.8675 7.64269 11.8183C7.60942 11.769 7.56677 11.7268 7.51717 11.694ZM30.4762 27.8716C30.3803 27.7992 30.2596 27.768 30.1407 27.7846C30.0217 27.8012 29.9143 27.8644 29.8419 27.9603C29.7977 28.019 29.7528 28.0773 29.7079 28.1353C29.6345 28.2302 29.6017 28.3504 29.6168 28.4694C29.6319 28.5884 29.6937 28.6966 29.7885 28.7701C29.8833 28.8436 30.0035 28.8765 30.1225 28.8615C30.2416 28.8465 30.3498 28.7848 30.4234 28.69C30.4709 28.6289 30.5181 28.5674 30.5649 28.5055C30.6371 28.4097 30.6684 28.289 30.6518 28.1702C30.6352 28.0513 30.572 27.9439 30.4762 27.8716Z" fill="#111858"/>
<path d="M28.3887 29.5966C28.3362 29.647 28.2833 29.6969 28.2297 29.7464C28.142 29.8281 28.0904 29.9413 28.086 30.061C28.0817 30.1808 28.125 30.2974 28.2064 30.3853C28.2879 30.4731 28.4009 30.5252 28.5206 30.5299C28.6403 30.5346 28.7571 30.4917 28.8452 30.4105C28.9027 30.3574 28.9593 30.3038 29.0157 30.2498C29.0588 30.2087 29.0934 30.1595 29.1175 30.105C29.1415 30.0505 29.1546 29.9918 29.156 29.9322C29.1573 29.8726 29.1468 29.8134 29.1252 29.7578C29.1036 29.7023 29.0712 29.6516 29.03 29.6086C28.9887 29.5656 28.9394 29.5312 28.8848 29.5073C28.8302 29.4834 28.7714 29.4705 28.7118 29.4694C28.6522 29.4683 28.593 29.479 28.5376 29.5008C28.4821 29.5226 28.4315 29.5551 28.3887 29.5966L28.3887 29.5966Z" fill="#2D4356"/>
<path d="M26.6931 30.9794C26.6332 31.0207 26.573 31.0615 26.5125 31.1018C26.4125 31.1684 26.3431 31.2719 26.3195 31.3896C26.2959 31.5073 26.32 31.6296 26.3866 31.7296C26.4531 31.8295 26.5567 31.8989 26.6744 31.9225C26.7921 31.9461 26.9144 31.922 27.0143 31.8554C27.0793 31.8122 27.1438 31.7684 27.2078 31.7241C27.3066 31.6559 27.3742 31.5512 27.3957 31.4331C27.4173 31.315 27.3911 31.1932 27.3228 31.0944C27.2546 30.9956 27.1499 30.928 27.0318 30.9065C26.9137 30.8849 26.7919 30.9111 26.6931 30.9794L26.6931 30.9794ZM30.6086 11.1451C30.5367 11.049 30.4296 10.9853 30.3108 10.9682C30.192 10.951 30.0713 10.9817 29.9751 11.0535C29.8789 11.1253 29.8152 11.2324 29.798 11.3512C29.7807 11.47 29.8113 11.5907 29.883 11.687C29.9266 11.7451 29.9696 11.8036 30.0121 11.8626C30.0824 11.9597 30.1883 12.025 30.3066 12.0441C30.4249 12.0633 30.546 12.0347 30.6433 11.9647C30.7406 11.8947 30.8061 11.789 30.8256 11.6707C30.845 11.5524 30.8168 11.4313 30.747 11.3338C30.7015 11.2705 30.6554 11.2076 30.6086 11.1451ZM33.0234 19.3436C32.9033 19.3436 32.7882 19.3913 32.7033 19.4761C32.6183 19.561 32.5706 19.6762 32.5706 19.7962C32.5706 19.8696 32.57 19.9428 32.5688 20.0158C32.5671 20.1358 32.6132 20.2516 32.6968 20.3377C32.7805 20.4239 32.8949 20.4732 33.015 20.475H33.0218C33.1407 20.475 33.2548 20.4282 33.3395 20.3447C33.4242 20.2613 33.4726 20.1479 33.4744 20.029C33.4755 19.9517 33.4761 19.8741 33.4762 19.7962C33.4762 19.6762 33.4284 19.561 33.3435 19.4761C33.2586 19.3913 33.1435 19.3436 33.0234 19.3436Z" fill="#111858"/>
<path d="M24.7997 32.0721C24.7338 32.1033 24.6676 32.134 24.6011 32.1644C24.5471 32.1891 24.4984 32.2241 24.4579 32.2676C24.4174 32.3111 24.3858 32.3622 24.365 32.4179C24.3443 32.4735 24.3346 32.5328 24.3368 32.5922C24.3389 32.6516 24.3527 32.71 24.3773 32.764C24.402 32.8181 24.4371 32.8668 24.4806 32.9073C24.5241 32.9478 24.5751 32.9793 24.6308 33.0001C24.6865 33.0209 24.7457 33.0305 24.8051 33.0284C24.8645 33.0263 24.9229 33.0125 24.977 32.9878C25.0475 32.9557 25.1177 32.9231 25.1875 32.89C25.2416 32.8648 25.2901 32.8291 25.3304 32.7851C25.3706 32.741 25.4018 32.6894 25.422 32.6333C25.4422 32.5771 25.4512 32.5175 25.4483 32.4579C25.4454 32.3983 25.4307 32.3399 25.4052 32.2859C25.3796 32.232 25.3436 32.1837 25.2993 32.1437C25.255 32.1037 25.2032 32.0729 25.1469 32.053C25.0906 32.0332 25.031 32.0246 24.9714 32.0279C24.9118 32.0312 24.8534 32.0462 24.7997 32.0721H24.7997Z" fill="#2D4356"/>
<path d="M32.4477 23.8142C32.3338 23.7761 32.2095 23.7848 32.102 23.8382C31.9946 23.8917 31.9127 23.9856 31.8744 24.0994C31.8512 24.1689 31.8274 24.2383 31.803 24.3075C31.7832 24.3636 31.7746 24.423 31.7778 24.4823C31.781 24.5417 31.7959 24.5999 31.8215 24.6535C31.8472 24.7071 31.8831 24.7552 31.9274 24.7949C31.9716 24.8346 32.0232 24.8653 32.0793 24.885C32.1354 24.9048 32.1948 24.9134 32.2541 24.9102C32.3135 24.907 32.3717 24.8922 32.4253 24.8665C32.4789 24.8408 32.527 24.8049 32.5667 24.7606C32.6064 24.7164 32.6371 24.6648 32.6568 24.6087C32.6829 24.5351 32.7081 24.4613 32.7331 24.3872C32.752 24.3308 32.7596 24.2713 32.7555 24.212C32.7513 24.1527 32.7356 24.0948 32.7091 24.0416C32.6826 23.9884 32.6458 23.9409 32.601 23.9019C32.5561 23.8629 32.504 23.8331 32.4477 23.8142Z" fill="#111858"/>
<path d="M31.6257 25.9229C31.5193 25.8671 31.3952 25.8559 31.2806 25.8916C31.1659 25.9273 31.0702 26.0071 31.0143 26.1134C30.9803 26.1779 30.9458 26.2422 30.9109 26.3061C30.882 26.3583 30.8637 26.4156 30.857 26.4749C30.8504 26.5342 30.8555 26.5941 30.8721 26.6514C30.8887 26.7087 30.9165 26.7621 30.9538 26.8086C30.9911 26.8552 31.0372 26.8939 31.0895 26.9225C31.1418 26.9511 31.1993 26.9691 31.2586 26.9755C31.3179 26.9819 31.3778 26.9764 31.435 26.9596C31.4922 26.9427 31.5455 26.9147 31.5919 26.8771C31.6382 26.8396 31.6766 26.7933 31.705 26.7408C31.7426 26.6723 31.7796 26.6034 31.816 26.534C31.8436 26.4813 31.8607 26.4238 31.866 26.3646C31.8714 26.3054 31.8651 26.2457 31.8474 26.189C31.8298 26.1322 31.8011 26.0795 31.763 26.0339C31.725 25.9882 31.6783 25.9505 31.6257 25.9229ZM32.9151 21.6019C32.7965 21.583 32.6753 21.6119 32.578 21.6823C32.4807 21.7527 32.4154 21.8588 32.3964 21.9774C32.3849 22.0492 32.3727 22.1208 32.3599 22.1923C32.339 22.3104 32.3658 22.4321 32.4344 22.5304C32.5031 22.6288 32.608 22.696 32.7261 22.7171C32.8442 22.7382 32.9658 22.7116 33.0643 22.643C33.1628 22.5745 33.2301 22.4697 33.2513 22.3516C33.2651 22.2747 33.2781 22.1976 33.2905 22.1204C33.3094 22.0018 33.2805 21.8806 33.2101 21.7834C33.1397 21.6862 33.0336 21.6209 32.9151 21.6019Z" fill="#2D4356"/>
<path d="M22.7546 32.8454C22.6845 32.8656 22.614 32.8853 22.5437 32.9043C22.4862 32.9197 22.4323 32.9464 22.3852 32.9827C22.338 33.0189 22.2985 33.0642 22.2688 33.1158C22.2391 33.1673 22.2199 33.2243 22.2123 33.2833C22.2047 33.3423 22.2087 33.4022 22.2243 33.4597C22.2398 33.5171 22.2666 33.5709 22.3029 33.618C22.3393 33.6651 22.3846 33.7046 22.4362 33.7342C22.4879 33.7638 22.5448 33.7829 22.6039 33.7904C22.6629 33.7979 22.7228 33.7938 22.7802 33.7781C22.8554 33.7578 22.9304 33.7368 23.0053 33.7152C23.0624 33.6988 23.1157 33.6712 23.1622 33.6342C23.2087 33.5971 23.2474 33.5512 23.2761 33.4992C23.3049 33.4472 23.3231 33.39 23.3297 33.3309C23.3364 33.2719 23.3313 33.2121 23.3149 33.1549C23.2984 33.0978 23.2709 33.0445 23.2338 32.998C23.1967 32.9516 23.1509 32.9129 23.0988 32.8841C23.0468 32.8554 22.9896 32.8372 22.9306 32.8305C22.8715 32.8239 22.8117 32.8289 22.7546 32.8454V32.8454Z" fill="#111858"/>
<path d="M10.2067 30.1575C10.1152 30.08 9.99665 30.0421 9.87715 30.052C9.75764 30.0618 9.64694 30.1187 9.56934 30.2101C9.49173 30.3016 9.45357 30.42 9.46323 30.5396C9.47289 30.6591 9.52958 30.7699 9.62085 30.8477C9.68055 30.8983 9.74024 30.9482 9.8006 30.9976C9.84656 31.0353 9.8995 31.0636 9.95639 31.0809C10.0133 31.0981 10.073 31.104 10.1322 31.0982C10.1913 31.0924 10.2488 31.0749 10.3012 31.0469C10.3536 31.0189 10.4 30.9808 10.4378 30.9349C10.4755 30.8889 10.5038 30.836 10.521 30.7791C10.5383 30.7222 10.5442 30.6624 10.5383 30.6033C10.5325 30.5441 10.5151 30.4867 10.4871 30.4342C10.459 30.3818 10.421 30.3354 10.375 30.2977C10.3186 30.2514 10.2625 30.2047 10.2067 30.1575Z" fill="#2D4356"/>
<path d="M12.1736 31.5457C12.1103 31.5089 12.0476 31.4717 11.9852 31.4342C11.9343 31.4033 11.8779 31.3828 11.8191 31.3737C11.7603 31.3647 11.7002 31.3673 11.6425 31.3815C11.5847 31.3957 11.5302 31.4212 11.4823 31.4564C11.4344 31.4916 11.3938 31.536 11.363 31.5869C11.3323 31.6378 11.3118 31.6943 11.3029 31.7532C11.294 31.812 11.2967 31.872 11.311 31.9298C11.3253 31.9875 11.3509 32.0419 11.3862 32.0898C11.4215 32.1377 11.466 32.1781 11.5169 32.2088C11.5837 32.2492 11.6509 32.2891 11.7186 32.3284C11.77 32.3582 11.8267 32.3777 11.8856 32.3856C11.9446 32.3936 12.0045 32.3898 12.0619 32.3746C12.1194 32.3594 12.1733 32.333 12.2206 32.297C12.2678 32.2609 12.3075 32.2159 12.3374 32.1645C12.3673 32.1131 12.3867 32.0564 12.3947 31.9974C12.4026 31.9385 12.3989 31.8786 12.3837 31.8212C12.3684 31.7637 12.3421 31.7098 12.306 31.6625C12.27 31.6153 12.225 31.5756 12.1736 31.5457L12.1736 31.5457ZM8.6569 28.6143C8.57898 28.5232 8.46808 28.4667 8.34854 28.4572C8.229 28.4477 8.11058 28.4861 8.01928 28.5638C7.92798 28.6415 7.87125 28.7523 7.86155 28.8719C7.85184 28.9914 7.88996 29.1099 7.96753 29.2013C8.01817 29.2608 8.06968 29.3199 8.12141 29.3784C8.20104 29.4681 8.31296 29.5224 8.43262 29.5296C8.55228 29.5368 8.66992 29.4963 8.75972 29.4169C8.84953 29.3375 8.90417 29.2257 8.91167 29.106C8.91917 28.9864 8.87891 28.8687 8.79972 28.7787C8.75152 28.7243 8.70391 28.6695 8.6569 28.6143Z" fill="#111858"/>
<path d="M14.1492 32.4885C14.0807 32.4623 14.0124 32.4356 13.9443 32.4085C13.8328 32.3639 13.7082 32.3654 13.5979 32.4128C13.4875 32.4601 13.4005 32.5493 13.3559 32.6608C13.3114 32.7723 13.3129 32.8969 13.3602 33.0072C13.4075 33.1176 13.4967 33.2046 13.6082 33.2492C13.6808 33.2781 13.7535 33.3065 13.8265 33.3342C13.882 33.3554 13.9412 33.3655 14.0006 33.3638C14.06 33.3621 14.1185 33.3488 14.1728 33.3245C14.227 33.3002 14.2759 33.2655 14.3168 33.2223C14.3576 33.1791 14.3895 33.1283 14.4107 33.0728C14.4319 33.0172 14.442 32.9581 14.4403 32.8986C14.4386 32.8392 14.4253 32.7807 14.401 32.7265C14.3767 32.6722 14.342 32.6233 14.2988 32.5824C14.2556 32.5416 14.2048 32.5097 14.1492 32.4885H14.1492Z" fill="#2D4356"/>
<path d="M16.2512 33.0991C16.1798 33.0845 16.1086 33.0693 16.0378 33.0536C15.9798 33.0405 15.9197 33.039 15.861 33.0492C15.8024 33.0593 15.7463 33.0809 15.696 33.1128C15.6458 33.1447 15.6023 33.1861 15.568 33.2348C15.5338 33.2835 15.5095 33.3385 15.4965 33.3965C15.4836 33.4546 15.4822 33.5147 15.4925 33.5733C15.5028 33.632 15.5245 33.688 15.5565 33.7382C15.5884 33.7884 15.63 33.8318 15.6787 33.866C15.7275 33.9001 15.7825 33.9243 15.8406 33.9371C15.9167 33.954 15.9931 33.9703 16.0699 33.986C16.1875 34.01 16.3098 33.9864 16.41 33.9202C16.5102 33.854 16.5799 33.7508 16.604 33.6332C16.628 33.5156 16.6044 33.3932 16.5382 33.2931C16.472 33.1929 16.3688 33.1231 16.2512 33.0991L16.2512 33.0991Z" fill="#111858"/>
<path d="M27.1429 13.006H10.8572C10.2575 13.0066 9.68254 13.2452 9.2585 13.6692C8.83446 14.0932 8.59593 14.6682 8.59525 15.2679V24.3155C8.59593 24.9152 8.83446 25.4901 9.2585 25.9141C9.68254 26.3382 10.2575 26.5767 10.8572 26.5774H27.1429C27.7425 26.5767 28.3175 26.3382 28.7415 25.9141C29.1656 25.4901 29.4041 24.9152 29.4048 24.3155V15.2679C29.4041 14.6682 29.1656 14.0932 28.7415 13.6692C28.3175 13.2452 27.7425 13.0066 27.1429 13.006ZM28.5 24.3155C28.4996 24.6753 28.3565 25.0203 28.1021 25.2747C27.8476 25.5291 27.5027 25.6722 27.1429 25.6726H10.8572C10.4973 25.6722 10.1524 25.5291 9.89794 25.2747C9.64351 25.0203 9.5004 24.6753 9.50001 24.3155V15.2679C9.5004 14.908 9.64351 14.5631 9.89794 14.3086C10.1524 14.0542 10.4973 13.9111 10.8572 13.9107H27.1429C27.5027 13.9111 27.8476 14.0542 28.1021 14.3086C28.3565 14.5631 28.4996 14.908 28.5 15.2679V24.3155Z" fill="#2D4356"/>
<path d="M21.6003 19.1949L17.6506 16.7687C17.4894 16.6756 17.3065 16.6266 17.1204 16.6266C16.9342 16.6266 16.7514 16.6756 16.5901 16.7686C16.4289 16.8616 16.295 16.9955 16.2019 17.1566C16.1087 17.3178 16.0596 17.5006 16.0595 17.6868V21.8973C16.06 22.1779 16.1714 22.447 16.3695 22.6458C16.5676 22.8445 16.8363 22.9569 17.1169 22.9583C17.3083 22.9575 17.4961 22.9059 17.6612 22.809L21.5963 20.3917C21.7007 20.3307 21.7874 20.2435 21.8478 20.1388C21.9081 20.034 21.9401 19.9153 21.9405 19.7945C21.9409 19.6736 21.9097 19.5547 21.85 19.4495C21.7904 19.3444 21.7043 19.2566 21.6003 19.1949H21.6003ZM17.1982 22.0318C17.1745 22.0455 17.1477 22.0527 17.1204 22.0528C17.093 22.0528 17.0661 22.0457 17.0424 22.032C17.0187 22.0184 16.999 21.9988 16.9853 21.9751C16.9716 21.9515 16.9644 21.9246 16.9643 21.8973V17.6868C16.9638 17.6594 16.9708 17.6324 16.9845 17.6087C16.9982 17.585 17.0181 17.5655 17.042 17.5523C17.067 17.5376 17.0953 17.5296 17.1242 17.529C17.1465 17.5289 17.1683 17.5348 17.1876 17.5459L20.8442 19.7919L17.1982 22.0318Z" fill="#111858"/>
<path d="M0.452381 34.2679C0.702224 34.2679 0.904762 34.0653 0.904762 33.8155C0.904762 33.5656 0.702224 33.3631 0.452381 33.3631C0.202538 33.3631 0 33.5656 0 33.8155C0 34.0653 0.202538 34.2679 0.452381 34.2679Z" fill="#2D4356"/>
<path d="M2.4881 33.3631H1.80953C1.68955 33.3631 1.57448 33.4108 1.48965 33.4956C1.40481 33.5804 1.35715 33.6955 1.35715 33.8155C1.35715 33.9355 1.40481 34.0505 1.48965 34.1354C1.57448 34.2202 1.68955 34.2679 1.80953 34.2679H2.4881C2.60808 34.2679 2.72314 34.2202 2.80798 34.1354C2.89282 34.0505 2.94048 33.9355 2.94048 33.8155C2.94048 33.6955 2.89282 33.5804 2.80798 33.4956C2.72314 33.4108 2.60808 33.3631 2.4881 33.3631ZM36.1905 33.3631H35.5119C35.3919 33.3631 35.2769 33.4108 35.192 33.4956C35.1072 33.5804 35.0595 33.6955 35.0595 33.8155C35.0595 33.9355 35.1072 34.0505 35.192 34.1354C35.2769 34.2202 35.3919 34.2679 35.5119 34.2679H36.1905C36.3105 34.2679 36.4255 34.2202 36.5104 34.1354C36.5952 34.0505 36.6429 33.9355 36.6429 33.8155C36.6429 33.6955 36.5952 33.5804 36.5104 33.4956C36.4255 33.4108 36.3105 33.3631 36.1905 33.3631Z" fill="#2D4356"/>
<path d="M37.5476 34.2679C37.7975 34.2679 38 34.0653 38 33.8155C38 33.5656 37.7975 33.3631 37.5476 33.3631C37.2978 33.3631 37.0952 33.5656 37.0952 33.8155C37.0952 34.0653 37.2978 34.2679 37.5476 34.2679Z" fill="#2D4356"/>
<path d="M26.7253 35.1726H24.8461C24.7324 35.1817 24.6263 35.2333 24.5489 35.3172C24.4715 35.401 24.4286 35.5109 24.4286 35.625C24.4286 35.7391 24.4715 35.849 24.5489 35.9328C24.6263 36.0167 24.7324 36.0683 24.8461 36.0774H26.7253C26.839 36.0683 26.9451 36.0167 27.0225 35.9328C27.0999 35.849 27.1429 35.7391 27.1429 35.625C27.1429 35.5109 27.0999 35.401 27.0225 35.3172C26.9451 35.2333 26.839 35.1817 26.7253 35.1726ZM13.1538 35.1726H11.2747C11.161 35.1817 11.0549 35.2333 10.9775 35.3172C10.9001 35.401 10.8571 35.5109 10.8571 35.625C10.8571 35.7391 10.9001 35.849 10.9775 35.9328C11.0549 36.0167 11.161 36.0683 11.2747 36.0774H13.1538C13.2676 36.0683 13.3737 36.0167 13.4511 35.9328C13.5285 35.849 13.5714 35.7391 13.5714 35.625C13.5714 35.5109 13.5285 35.401 13.4511 35.3172C13.3737 35.2333 13.2676 35.1817 13.1538 35.1726ZM23.5238 35.1726H14.4762C14.3562 35.1726 14.2411 35.2203 14.1563 35.3051C14.0715 35.39 14.0238 35.505 14.0238 35.625C14.0238 35.745 14.0715 35.86 14.1563 35.9449C14.2411 36.0297 14.3562 36.0774 14.4762 36.0774H18.0817V36.5298H16.2857C16.1657 36.5298 16.0507 36.5774 15.9658 36.6623C15.881 36.7471 15.8333 36.8622 15.8333 36.9821C15.8333 37.1021 15.881 37.2172 15.9658 37.302C16.0507 37.3869 16.1657 37.4345 16.2857 37.4345H21.9405C22.0605 37.4345 22.1755 37.3869 22.2604 37.302C22.3452 37.2172 22.3929 37.1021 22.3929 36.9821C22.3929 36.8622 22.3452 36.7471 22.2604 36.6623C22.1755 36.5774 22.0605 36.5298 21.9405 36.5298H19.9183V36.0774H23.5238C23.6438 36.0774 23.7588 36.0297 23.8437 35.9449C23.9285 35.86 23.9762 35.745 23.9762 35.625C23.9762 35.505 23.9285 35.39 23.8437 35.3051C23.7588 35.2203 23.6438 35.1726 23.5238 35.1726Z" fill="#111858"/>
<path d="M34.0917 33.3631H3.90828C3.84392 33.3547 3.77851 33.3601 3.71642 33.379C3.65432 33.3979 3.59697 33.4298 3.54819 33.4726C3.49942 33.5154 3.46034 33.5682 3.43356 33.6273C3.40679 33.6864 3.39294 33.7506 3.39294 33.8155C3.39294 33.8804 3.40679 33.9445 3.43356 34.0037C3.46034 34.0628 3.49942 34.1155 3.54819 34.1583C3.59697 34.2012 3.65432 34.2331 3.71642 34.252C3.77851 34.2708 3.84392 34.2763 3.90828 34.2679H34.0917C34.1561 34.2763 34.2215 34.2708 34.2836 34.252C34.3457 34.2331 34.403 34.2012 34.4518 34.1583C34.5006 34.1155 34.5397 34.0628 34.5664 34.0037C34.5932 33.9445 34.6071 33.8804 34.6071 33.8155C34.6071 33.7506 34.5932 33.6864 34.5664 33.6273C34.5397 33.5682 34.5006 33.5154 34.4518 33.4726C34.403 33.4298 34.3457 33.3979 34.2836 33.379C34.2215 33.3601 34.1561 33.3547 34.0917 33.3631ZM26.7029 1.92262C26.8371 1.92262 26.9683 1.88282 27.0799 1.80826C27.1914 1.7337 27.2784 1.62772 27.3298 1.50373C27.3811 1.37973 27.3946 1.24329 27.3684 1.11166C27.3422 0.980035 27.2776 0.859125 27.1827 0.764225C27.0878 0.669325 26.9669 0.604697 26.8352 0.578514C26.7036 0.552331 26.5672 0.565769 26.4432 0.617129C26.3192 0.668488 26.2132 0.755463 26.1386 0.867053C26.0641 0.978644 26.0243 1.10984 26.0243 1.24405C26.0245 1.42395 26.0961 1.59643 26.2233 1.72364C26.3505 1.85085 26.523 1.92241 26.7029 1.92262ZM26.7029 0.904761C26.77 0.904761 26.8356 0.92466 26.8914 0.961941C26.9472 0.999223 26.9906 1.05221 27.0163 1.11421C27.042 1.1762 27.0487 1.24442 27.0356 1.31024C27.0225 1.37605 26.9902 1.43651 26.9428 1.48396C26.8953 1.53141 26.8349 1.56372 26.769 1.57681C26.7032 1.58991 26.635 1.58319 26.573 1.55751C26.511 1.53183 26.458 1.48834 26.4208 1.43254C26.3835 1.37675 26.3636 1.31115 26.3636 1.24405C26.3637 1.15409 26.3994 1.06784 26.463 1.00423C26.5267 0.940625 26.6129 0.90485 26.7029 0.904761ZM35.807 15.494C35.7176 15.494 35.6301 15.5206 35.5557 15.5703C35.4813 15.62 35.4233 15.6906 35.3891 15.7733C35.3548 15.856 35.3459 15.9469 35.3633 16.0347C35.3808 16.1224 35.4239 16.203 35.4871 16.2663C35.5504 16.3296 35.631 16.3727 35.7188 16.3901C35.8065 16.4076 35.8975 16.3986 35.9801 16.3644C36.0628 16.3301 36.1335 16.2722 36.1832 16.1978C36.2329 16.1234 36.2594 16.0359 36.2594 15.9464C36.2593 15.8265 36.2116 15.7115 36.1268 15.6267C36.0419 15.5419 35.927 15.4942 35.807 15.494ZM35.807 16.1726C35.7623 16.1726 35.7186 16.1594 35.6814 16.1345C35.6442 16.1096 35.6152 16.0743 35.5981 16.033C35.5809 15.9917 35.5765 15.9462 35.5852 15.9023C35.5939 15.8584 35.6155 15.8181 35.6471 15.7865C35.6787 15.7549 35.719 15.7333 35.7629 15.7246C35.8068 15.7159 35.8523 15.7203 35.8936 15.7375C35.9349 15.7546 35.9702 15.7836 35.9951 15.8208C36.02 15.858 36.0332 15.9017 36.0332 15.9464C36.0332 16.0064 36.0093 16.0639 35.9669 16.1063C35.9245 16.1487 35.867 16.1726 35.807 16.1726ZM31.6225 7.52083C31.533 7.52083 31.4456 7.54736 31.3712 7.59707C31.2968 7.64678 31.2388 7.71743 31.2046 7.8001C31.1703 7.88276 31.1614 7.97372 31.1788 8.06147C31.1963 8.14922 31.2394 8.22983 31.3026 8.2931C31.3659 8.35636 31.4465 8.39945 31.5342 8.4169C31.622 8.43436 31.713 8.4254 31.7956 8.39116C31.8783 8.35692 31.9489 8.29894 31.9986 8.22454C32.0483 8.15015 32.0749 8.06269 32.0749 7.97321C32.0747 7.85328 32.027 7.73829 31.9422 7.65348C31.8574 7.56868 31.7424 7.52097 31.6225 7.52083ZM31.6225 8.1994C31.5778 8.1994 31.534 8.18614 31.4968 8.16128C31.4596 8.13643 31.4306 8.1011 31.4135 8.05977C31.3964 8.01844 31.3919 7.97296 31.4007 7.92909C31.4094 7.88521 31.4309 7.84491 31.4626 7.81327C31.4942 7.78164 31.5345 7.7601 31.5784 7.75137C31.6222 7.74264 31.6677 7.74712 31.7091 7.76424C31.7504 7.78136 31.7857 7.81035 31.8106 7.84755C31.8354 7.88475 31.8487 7.92848 31.8487 7.97321C31.8486 8.03318 31.8248 8.09068 31.7824 8.13309C31.74 8.17549 31.6825 8.19934 31.6225 8.1994ZM11.6488 1.75298C11.5593 1.75298 11.4719 1.77951 11.3975 1.82922C11.3231 1.87892 11.2651 1.94958 11.2309 2.03224C11.1966 2.1149 11.1877 2.20586 11.2051 2.29361C11.2226 2.38137 11.2657 2.46197 11.3289 2.52524C11.3922 2.5885 11.4728 2.63159 11.5606 2.64905C11.6483 2.6665 11.7393 2.65754 11.8219 2.6233C11.9046 2.58906 11.9752 2.53108 12.025 2.45669C12.0747 2.38229 12.1012 2.29483 12.1012 2.20536C12.1011 2.08542 12.0534 1.97043 11.9685 1.88563C11.8837 1.80082 11.7688 1.75311 11.6488 1.75298ZM11.6488 2.43155C11.6041 2.43155 11.5603 2.41828 11.5231 2.39343C11.486 2.36857 11.457 2.33325 11.4398 2.29192C11.4227 2.25059 11.4182 2.20511 11.427 2.16123C11.4357 2.11735 11.4572 2.07705 11.4889 2.04542C11.5205 2.01378 11.5608 1.99224 11.6047 1.98351C11.6486 1.97478 11.694 1.97926 11.7354 1.99638C11.7767 2.0135 11.812 2.0425 11.8369 2.07969C11.8617 2.11689 11.875 2.16062 11.875 2.20536C11.8749 2.26533 11.8511 2.32283 11.8087 2.36523C11.7663 2.40764 11.7088 2.43149 11.6488 2.43155ZM7.01191 8.08631C7.01191 7.99684 6.98538 7.90937 6.93567 7.83498C6.88596 7.76059 6.81531 7.7026 6.73265 7.66836C6.64999 7.63412 6.55903 7.62517 6.47127 7.64262C6.38352 7.66008 6.30291 7.70316 6.23965 7.76643C6.17638 7.82969 6.13329 7.9103 6.11584 7.99805C6.09838 8.08581 6.10734 8.17677 6.14158 8.25943C6.17582 8.34209 6.2338 8.41274 6.3082 8.46245C6.38259 8.51216 6.47006 8.53869 6.55953 8.53869C6.67946 8.53855 6.79445 8.49085 6.87926 8.40604C6.96407 8.32123 7.01177 8.20625 7.01191 8.08631ZM6.33334 8.08631C6.33334 8.04157 6.3466 7.99784 6.37146 7.96064C6.39631 7.92345 6.43164 7.89446 6.47297 7.87734C6.5143 7.86022 6.55978 7.85574 6.60366 7.86446C6.64753 7.87319 6.68784 7.89473 6.71947 7.92637C6.7511 7.958 6.77264 7.9983 6.78137 8.04218C6.7901 8.08606 6.78562 8.13154 6.7685 8.17287C6.75138 8.2142 6.72239 8.24953 6.68519 8.27438C6.648 8.29923 6.60426 8.3125 6.55953 8.3125C6.49956 8.31244 6.44206 8.28859 6.39965 8.24618C6.35725 8.20378 6.3334 8.14628 6.33334 8.08631Z" fill="#2D4356"/>
<path d="M2.46277 15.4965L2.79911 15.0543L2.58672 14.934L2.37071 15.4294H2.36369L2.14429 14.9374L1.92828 15.0613L2.261 15.4931V15.5002L1.74054 15.433V15.6736L2.2644 15.6065V15.6135L1.92828 16.045L2.12981 16.1726L2.36008 15.6736H2.36709L2.57948 16.169L2.8025 16.0417L2.46277 15.6169V15.6099L2.99703 15.6736V15.433L2.46277 15.5035V15.4965Z" fill="#111858"/>
<path d="M1.97804 1.80749L1.78442 2.05607L1.90068 2.12958L2.03323 1.8421H2.03707L2.15944 2.12755L2.28792 2.05404L2.09226 1.80952V1.80545L2.39988 1.8421V1.70367L2.09226 1.74438V1.74031L2.28588 1.48562L2.16351 1.41618L2.03934 1.70141H2.03526L1.90882 1.41822L1.78442 1.48969L1.976 1.73827V1.74235L1.6763 1.70367V1.8421L1.97804 1.80342V1.80749Z" fill="#111858"/>
<path d="M37.3339 1.40532V1.1694L36.8098 1.23884V1.23183L37.1396 0.797999L36.9312 0.679928L36.7195 1.16578H36.7125L36.4974 0.683321L36.2855 0.805011L36.6119 1.22844V1.23545L36.1013 1.1694V1.40532L36.6153 1.3395V1.34651L36.2855 1.76994L36.4834 1.89502L36.7091 1.40532H36.7159L36.9242 1.8914L37.143 1.76655L36.8098 1.3499V1.34289L37.3339 1.40532Z" fill="#111858"/>
<path d="M18.4341 2.84683L18.7186 2.47249L18.5388 2.3707L18.3563 2.78983H18.3502L18.1647 2.37364L17.9817 2.47859L18.2633 2.84389V2.84977L17.8231 2.793V2.99657L18.2662 2.93957V2.94568L17.9817 3.31097L18.1525 3.41887L18.3472 2.99657H18.3531L18.5329 3.4157L18.7216 3.30803L18.4341 2.94862V2.94251L18.886 2.99657V2.793L18.4341 2.85271V2.84683Z" fill="#111858"/>
</g>
<defs>
<clipPath id="clip0_985_33107">
<rect width="38" height="38" fill="white"/>
</clipPath>
</defs>
</svg>
