<svg width="72" height="72" viewBox="0 0 72 72" fill="none" xmlns="http://www.w3.org/2000/svg">
<path fill-rule="evenodd" clip-rule="evenodd" d="M54.998 26.1875V40.9002C54.998 40.9002 55.0014 42.2547 54.89 44.3371C54.8731 44.6476 55.1116 44.9131 55.4221 44.9289C55.7315 44.9458 55.997 44.7084 56.0139 44.3979C56.1275 42.2773 56.123 40.8969 56.123 40.8969C56.123 40.8991 56.123 26.1875 56.123 26.1875C56.123 25.877 55.871 25.625 55.5605 25.625C55.25 25.625 54.998 25.877 54.998 26.1875ZM52.1247 42.5619L49.3089 41.5404C48.3616 41.1972 47.303 41.3863 46.5335 42.0365L43.1225 44.9199C42.6927 45.2833 42.11 45.4093 41.5689 45.254L34.8481 43.3336C34.5849 43.2583 34.3059 43.3843 34.1877 43.6306C34.0685 43.877 34.1439 44.1729 34.3666 44.3326C34.3666 44.3326 38.5977 47.3544 40.8579 48.9688C41.8816 49.7 43.2665 49.6617 44.2486 48.8765L47.5471 46.2372C48.0117 45.866 48.6372 45.767 49.1941 45.9751L54.6144 48.008C54.1542 52.7206 53.1541 58.7281 50.9142 62.5025C50.8096 62.6645 50.633 62.7601 50.4429 62.7601C46.1375 62.7635 20.5775 62.7635 13.4315 62.7635C13.2346 62.7635 13.0512 62.66 12.95 62.4912C12.8487 62.3214 12.8431 62.111 12.9354 61.9366C12.941 61.9276 12.9455 61.9175 12.95 61.9085C16.4791 54.2461 16.748 40.9104 16.748 40.9104V39.4242C16.748 39.1137 16.496 38.8617 16.1855 38.8617C15.875 38.8617 15.623 39.1137 15.623 39.4242V40.8935C15.6174 41.1815 15.3429 54.0043 11.9364 61.4191C11.6652 61.9456 11.6844 62.5677 11.9859 63.0695C12.2896 63.5769 12.8386 63.8885 13.4304 63.8885H13.4315C20.5764 63.8885 46.1386 63.8885 50.444 63.8851C51.02 63.8851 51.5577 63.5892 51.866 63.1021C51.8694 63.0976 51.8716 63.0931 51.8739 63.0886C54.2622 59.0757 55.3197 52.6138 55.7742 47.684C55.7979 47.432 55.6494 47.1946 55.412 47.1058L49.589 44.9221C48.6609 44.5745 47.618 44.7399 46.844 45.3597C45.926 46.0944 44.5569 47.189 43.5466 47.9979C42.9571 48.4693 42.1257 48.4918 41.5115 48.053L37.6719 45.3103L41.2606 46.3363C42.1617 46.5939 43.1326 46.3846 43.8481 45.7794L47.2602 42.896C47.7215 42.5056 48.3571 42.392 48.9252 42.5979L51.74 43.6194C52.0325 43.7251 52.3554 43.5744 52.4611 43.283C52.5669 42.9905 52.4161 42.6676 52.1247 42.5619Z" fill="#333333"/>
<path fill-rule="evenodd" clip-rule="evenodd" d="M19.4602 38.798L21.3187 38.1005C21.8756 37.8923 22.5011 37.9913 22.9657 38.3626L26.2631 41.0018C27.2463 41.7871 28.6312 41.8253 29.6549 41.0941C31.9151 39.4797 36.1462 36.458 36.1462 36.458C36.3689 36.2982 36.4443 36.0023 36.3251 35.756C36.2069 35.5096 35.9279 35.3836 35.6647 35.459C35.6647 35.459 31.1309 36.755 28.9428 37.3793C28.4028 37.5346 27.8201 37.4086 27.3903 37.0452L23.9793 34.1618C23.2098 33.5116 22.1512 33.3226 21.2039 33.6657L16.7478 35.2823V9.79883C16.7478 9.6492 16.8074 9.50633 16.9132 9.40058C17.0189 9.29483 17.1618 9.23633 17.3103 9.23633C21.2084 9.23633 34.2112 9.23633 39.9374 9.23633C40.2479 9.23633 40.4999 8.98433 40.4999 8.67383C40.4999 8.36333 40.2479 8.11133 39.9374 8.11133C34.2112 8.11133 21.2084 8.11133 17.3103 8.11133C16.8626 8.11133 16.4339 8.28908 16.1178 8.6052C15.8006 8.92133 15.6228 9.35108 15.6228 9.79883V36.0845C15.6228 36.2678 15.7128 36.44 15.8624 36.5457C16.0132 36.6503 16.2056 36.6762 16.3777 36.6132L21.5876 34.7232C22.1557 34.5173 22.7913 34.631 23.2526 35.0213L26.6636 37.9047C27.3802 38.51 28.3511 38.7192 29.2522 38.4616L32.8409 37.4356L29.0013 40.1783C28.3871 40.6171 27.5557 40.5946 26.9662 40.1232C25.9559 39.3143 24.5868 38.2197 23.6688 37.4851C22.8948 36.8652 21.8519 36.6998 20.9238 37.0475L19.0653 37.745C18.7739 37.853 18.6266 38.1781 18.7357 38.4683C18.8448 38.7597 19.1688 38.9071 19.4602 38.798Z" fill="#333333"/>
<path fill-rule="evenodd" clip-rule="evenodd" d="M55.3545 23.4758C55.5762 23.5635 55.8293 23.5016 55.9857 23.3205C56.142 23.1405 56.1679 22.8806 56.0487 22.6736C52.875 17.1251 48.5269 12.3113 43.0189 8.22188C42.8322 8.08238 42.5779 8.07451 42.3811 8.20051C42.1842 8.32538 42.0852 8.5605 42.1335 8.78888C42.9627 12.75 43.3699 16.7584 42.9683 20.8568C42.9143 21.3731 43.1033 21.8906 43.4836 22.2506C43.8627 22.6118 44.3881 22.776 44.9055 22.695C48.5134 22.137 52.0324 22.164 55.3545 23.4758ZM6.8378 26.7506L12.4628 33.3544C12.8656 33.828 13.5754 33.8843 14.0479 33.4815C14.5204 33.0788 14.5778 32.3689 14.1751 31.8964L8.55005 25.2926C8.1473 24.819 7.43743 24.7628 6.9638 25.1655C6.4913 25.5683 6.43505 26.2781 6.8378 26.7506ZM6.89855 36.5674L10.8912 37.6373C11.4908 37.7981 12.1084 37.4415 12.2693 36.8419C12.4302 36.2423 12.0736 35.6246 11.4739 35.4638L7.4813 34.3939C6.88055 34.233 6.26405 34.5896 6.10318 35.1893C5.9423 35.7889 6.29893 36.4065 6.89855 36.5674ZM6.36868 45.8205L13.8814 41.4825C14.4192 41.172 14.6037 40.4835 14.2932 39.9458C13.9827 39.408 13.2942 39.2235 12.7564 39.534L5.24368 43.872C4.70593 44.1825 4.52143 44.871 4.83193 45.4088C5.14243 45.9465 5.83093 46.131 6.36868 45.8205ZM65.1623 57.6161L59.5373 51.0124C59.1346 50.5399 58.4247 50.4836 57.9522 50.8853C57.4797 51.288 57.4223 51.999 57.8251 52.4715L63.4501 59.0753C63.8528 59.5478 64.5627 59.6051 65.0363 59.2024C65.5088 58.7996 65.5651 58.0886 65.1623 57.6161ZM65.1016 47.8005L61.1089 46.7306C60.5093 46.5698 59.8917 46.9264 59.7308 47.526C59.5699 48.1256 59.9265 48.7433 60.5262 48.9041L64.5188 49.974C65.1195 50.1338 65.736 49.7783 65.8969 49.1775C66.0578 48.5779 65.7012 47.9614 65.1016 47.8005ZM65.6314 38.5474L58.1187 42.8843C57.5809 43.1948 57.3964 43.8833 57.7069 44.421C58.0174 44.9588 58.7059 45.1433 59.2437 44.8328L66.7564 40.4959C67.2942 40.1854 67.4787 39.4969 67.1682 38.9591C66.8577 38.4214 66.1692 38.2369 65.6314 38.5474Z" fill="#2957E7"/>
<path fill-rule="evenodd" clip-rule="evenodd" d="M22.7452 18.6142L26.7221 22.5922C26.9415 22.8116 27.2981 22.8116 27.5175 22.5922C27.7368 22.3728 27.7368 22.0162 27.5175 21.7968L23.5406 17.8188C23.3212 17.5995 22.9646 17.5995 22.7452 17.8188C22.5247 18.0393 22.5247 18.3948 22.7452 18.6142Z" fill="#333333"/>
<path fill-rule="evenodd" clip-rule="evenodd" d="M26.7221 17.8188L22.7452 21.7968C22.5247 22.0162 22.5247 22.3728 22.7452 22.5922C22.9646 22.8116 23.3212 22.8116 23.5406 22.5922L27.5175 18.6142C27.7368 18.3948 27.7368 18.0393 27.5175 17.8188C27.2981 17.5995 26.9415 17.5995 26.7221 17.8188ZM35.1202 18.6142L39.0971 22.5922C39.3165 22.8116 39.6731 22.8116 39.8925 22.5922C40.1118 22.3728 40.1118 22.0162 39.8925 21.7968L35.9156 17.8188C35.6962 17.5995 35.3396 17.5995 35.1202 17.8188C34.8997 18.0393 34.8997 18.3948 35.1202 18.6142Z" fill="#333333"/>
<path fill-rule="evenodd" clip-rule="evenodd" d="M39.0971 17.8188L35.1202 21.7968C34.8997 22.0162 34.8997 22.3728 35.1202 22.5922C35.3396 22.8116 35.6962 22.8116 35.9156 22.5922L39.8924 18.6142C40.1118 18.3948 40.1118 18.0393 39.8924 17.8188C39.6731 17.5995 39.3164 17.5995 39.0971 17.8188ZM24.9063 29.2601L26.8222 27.8246L28.7313 29.259C28.9304 29.4097 29.2061 29.4097 29.4063 29.259L31.3188 27.8246L33.2313 29.259C33.4316 29.4097 33.7061 29.4097 33.9063 29.259L35.8188 27.8246L37.7313 29.259C37.9799 29.4457 38.3321 29.3951 38.5188 29.1465C38.7044 28.899 38.6549 28.5457 38.4063 28.359L36.1563 26.6715C35.9572 26.5218 35.6816 26.5218 35.4813 26.6715L33.5688 28.1058L31.6563 26.6715C31.4572 26.5218 31.1816 26.5218 30.9813 26.6715L29.0688 28.1058L27.1608 26.6726C26.9606 26.5218 26.6861 26.5218 26.4858 26.6715L24.2313 28.359C23.9827 28.5446 23.9321 28.8978 24.1188 29.1465C24.3044 29.3951 24.6577 29.4457 24.9063 29.2601Z" fill="#333333"/>
</svg>
