<svg width="16" height="16" viewBox="0 0 16 16" fill="none" xmlns="http://www.w3.org/2000/svg">
<path d="M7.33325 13.8335C3.74659 13.8335 0.833252 10.9202 0.833252 7.3335C0.833252 3.74683 3.74659 0.833496 7.33325 0.833496C10.9199 0.833496 13.8333 3.74683 13.8333 7.3335C13.8333 10.9202 10.9199 13.8335 7.33325 13.8335ZM7.33325 1.8335C4.29992 1.8335 1.83325 4.30016 1.83325 7.3335C1.83325 10.3668 4.29992 12.8335 7.33325 12.8335C10.3666 12.8335 12.8333 10.3668 12.8333 7.3335C12.8333 4.30016 10.3666 1.8335 7.33325 1.8335Z" fill="#E0E0E0"/>
<path d="M13.4401 15.1933C13.3867 15.1933 13.3334 15.1867 13.2867 15.18C12.9734 15.14 12.4067 14.9267 12.0867 13.9733C11.9201 13.4733 11.9801 12.9733 12.2534 12.5933C12.5267 12.2133 12.9867 12 13.5134 12C14.1934 12 14.7267 12.26 14.9667 12.72C15.2067 13.18 15.1401 13.7667 14.7601 14.3333C14.2867 15.0467 13.7734 15.1933 13.4401 15.1933ZM13.0401 13.66C13.1534 14.0067 13.3134 14.18 13.4201 14.1933C13.5267 14.2067 13.7267 14.08 13.9334 13.78C14.1267 13.4933 14.1401 13.2867 14.0934 13.1933C14.0467 13.1 13.8601 13 13.5134 13C13.3067 13 13.1534 13.0667 13.0667 13.18C12.9867 13.2933 12.9734 13.4667 13.0401 13.66Z" fill="#E0E0E0"/>
</svg>
