<svg width="470" height="310" viewBox="0 0 470 310" fill="none" xmlns="http://www.w3.org/2000/svg">
<path d="M373.437 124.057C373.587 123.945 373.728 123.815 373.831 123.647C374.207 123.051 373.972 122.231 373.803 121.803C373.296 120.536 372.329 119.54 371.38 118.571C370.404 117.565 369.474 116.624 369.023 115.395C368.845 114.91 368.751 114.417 368.657 113.895C368.592 113.55 368.526 113.196 368.432 112.843C367.803 110.505 365.897 108.483 363.681 107.803C363.549 107.766 363.418 107.729 363.286 107.692C362.629 107.505 361.944 107.319 361.577 106.77C361.39 106.49 361.305 106.146 361.221 105.782C361.117 105.363 361.023 104.935 360.732 104.571C360.235 103.929 359.483 103.864 358.76 103.789C358.253 103.742 357.718 103.687 357.296 103.435C356.817 103.146 356.507 102.643 356.178 102.112C355.868 101.6 355.54 101.079 355.052 100.725C354.291 100.175 353.399 100.222 352.535 100.268C352.141 100.287 351.746 100.305 351.38 100.268C351.192 100.212 351.005 100.175 350.817 100.156C350.591 100.082 350.385 99.9702 350.188 99.8118C350.084 99.728 349.99 99.6255 349.897 99.5231C349.784 99.402 349.662 99.2716 349.521 99.1598C348.61 98.4426 347.568 98.8059 346.563 99.1598C346.413 99.2157 346.272 99.2623 346.122 99.3089C345.943 99.1226 345.774 98.927 345.568 98.7686C344.845 98.2005 344.037 98.2563 343.202 98.4985C343.117 98.4054 343.023 98.3215 342.92 98.2377C341.972 97.4739 340.892 97.7813 339.85 98.0794C339.38 98.2191 338.892 98.3495 338.422 98.3961C338.197 98.1446 337.981 97.8745 337.718 97.6602C336 96.2724 333.896 98.0794 331.85 97.9024C330.929 97.8186 329.662 97.4739 329.38 98.3588C329.296 98.6196 329.342 98.9177 329.399 99.1971C328.779 99.1691 328.225 99.2809 328.028 99.8957C327.915 100.231 328 100.613 328.056 100.92L328.657 103.817C328.629 103.798 328.601 103.78 328.582 103.752C328.169 103.398 327.906 102.867 327.474 102.541C326.403 101.731 325.108 102.643 324.394 103.631C324.263 103.808 324.131 103.985 324 104.171C323.652 104.422 323.333 104.758 323.061 105.13L322.995 105.223C322.986 105.233 322.976 105.242 322.967 105.261C322.572 105.549 322.122 105.717 321.605 105.624C321.08 105.54 320.582 105.195 320.056 105.13C319.164 105.019 318.422 105.754 318.178 106.63C317.502 106.844 317.004 107.505 316.817 108.195C316.741 108.483 316.704 108.772 316.695 109.08C316 108.903 315.314 108.726 314.619 108.558C313.502 108.279 312.122 108.083 311.54 109.024C311.389 109.266 311.324 109.527 311.324 109.806C310.863 109.89 310.46 110.104 310.206 110.523C309.502 111.66 310.422 113.215 311.324 114.323C312.094 115.274 313.051 116.661 312.563 117.695C312.46 117.919 312.281 118.124 312.103 118.319C311.802 118.655 311.502 118.999 311.493 119.512C311.474 120.368 312.225 120.89 312.948 121.393C313.596 121.84 314.206 122.269 314.291 122.893V122.902C313.652 123.247 312.995 123.619 312.863 124.318C312.854 124.355 312.854 124.402 312.845 124.439C312.225 124.783 311.633 125.165 311.502 125.873C311.352 126.693 311.915 127.494 312.413 128.025C312.901 128.546 313.436 128.975 313.99 129.338C309.69 131.173 305.943 133.576 303.896 135.951C303.784 136.082 303.643 136.24 303.493 136.417C301.183 139.034 295.089 145.927 296.375 153.993C296.338 158.976 299.079 172.109 306.413 177.903C323.605 191.502 327.634 189.276 327.634 189.276C327.634 189.276 354.319 186.835 359.981 170.954C363.39 161.398 361.268 152.568 356.648 144.884C356.995 144.902 357.343 144.893 357.69 144.856C357.728 144.856 357.756 144.846 357.793 144.846C358.526 144.744 359.108 144.502 359.53 144.12C359.878 143.803 360.122 143.393 360.366 142.993C360.535 142.704 360.714 142.406 360.929 142.155C361.897 141.028 363.427 140.906 365.052 140.785C366.253 140.692 367.502 140.599 368.535 140.068C369.033 139.807 369.671 139.332 369.85 138.531C369.878 138.401 369.887 138.28 369.887 138.149C370.357 137.851 370.751 137.423 370.873 136.855C371.099 135.812 370.366 134.694 370.188 133.585C370.103 133.064 370.15 132.589 370.272 132.142C370.939 131.434 371.822 130.81 372.723 130.223C373.033 130.018 373.296 129.832 373.484 129.534C373.671 129.226 373.728 128.872 373.709 128.528C373.746 128.509 373.775 128.481 373.812 128.463C374.085 128.286 374.357 128.099 374.526 127.811C374.864 127.252 374.742 126.469 374.469 125.799C374.197 125.175 373.84 124.597 373.437 124.057ZM352.582 100.631C353.427 100.585 354.216 100.548 354.873 101.013C355.296 101.321 355.587 101.786 355.887 102.28C356.225 102.839 356.582 103.407 357.145 103.742C357.643 104.041 358.216 104.096 358.76 104.152C359.437 104.217 360.066 104.283 360.469 104.786C360.695 105.074 360.779 105.447 360.873 105.838C360.967 106.22 361.061 106.621 361.286 106.965C361.737 107.636 362.526 107.859 363.221 108.055C363.352 108.092 363.483 108.129 363.606 108.167C365.699 108.809 367.493 110.719 368.084 112.917C368.178 113.252 368.235 113.597 368.3 113.942C368.394 114.454 368.498 114.994 368.685 115.506C369.174 116.82 370.169 117.844 371.136 118.832C372.047 119.763 372.995 120.732 373.465 121.924C373.606 122.287 373.812 122.967 373.521 123.442C373.437 123.573 373.324 123.675 373.192 123.778C371.681 121.905 369.559 120.387 368.723 118.142C368.357 117.146 368.282 116.093 368.009 115.069C367.286 112.358 365.061 109.992 362.507 109.201C361.559 108.912 360.451 108.735 359.868 107.859C359.343 107.068 359.455 105.987 358.873 105.242C357.934 104.041 356.122 104.702 354.845 103.938C353.652 103.221 353.286 101.498 352.15 100.678L352.141 100.669C352.3 100.641 352.441 100.631 352.582 100.631ZM346.695 99.5138C347.662 99.1785 348.573 98.8525 349.324 99.4486C349.436 99.5417 349.549 99.6535 349.662 99.7653C349.765 99.8677 349.868 99.9795 349.99 100.082C350.009 100.101 350.028 100.11 350.047 100.119C348.779 100.138 347.465 100.408 346.441 99.5976C346.516 99.5697 346.601 99.5417 346.695 99.5138ZM316.263 130.13C315.831 129.962 315.389 129.776 314.957 129.543C315.737 129.226 316.535 128.928 317.342 128.658C317.84 128.854 318.347 129.012 318.854 129.161C317.972 129.459 317.098 129.785 316.263 130.13ZM339.972 98.4426C340.976 98.1539 341.925 97.8745 342.732 98.5265C342.77 98.5544 342.798 98.5823 342.835 98.6196C341.493 99.0574 340.094 99.7653 338.92 98.899C338.854 98.8525 338.789 98.7966 338.732 98.7407C339.145 98.6755 339.558 98.5544 339.972 98.4426ZM328.338 100.073C328.479 99.6349 328.929 99.5603 329.465 99.5883C329.765 101.051 330.075 102.513 330.375 103.975C330 104.227 329.493 104.245 329.042 104.059L328.385 100.911C328.328 100.631 328.263 100.315 328.338 100.073ZM317.136 108.334C317.277 107.813 317.615 107.319 318.084 107.077C317.981 107.841 318.103 108.67 318.225 109.471C317.821 109.368 317.427 109.266 317.023 109.163C317.033 108.884 317.061 108.605 317.136 108.334ZM311.549 114.109C310.732 113.103 309.887 111.697 310.479 110.747C310.676 110.43 310.976 110.253 311.333 110.179C311.464 111.008 312.047 111.902 312.61 112.61C313.464 113.662 314.403 115.078 313.878 116.186C313.662 116.633 313.23 116.959 312.995 117.369C313.145 116.252 312.272 115.003 311.549 114.109ZM313.089 121.104C312.432 120.648 311.802 120.219 311.812 119.577C311.821 119.186 312.075 118.897 312.347 118.599C312.525 118.394 312.713 118.189 312.835 117.937V117.947C312.807 119.418 315.446 119.819 315.624 121.3C315.718 122.026 315.192 122.408 314.572 122.753C314.413 122.017 313.737 121.551 313.089 121.104ZM312.619 127.801C312.263 127.419 311.69 126.684 311.821 125.994C311.915 125.473 312.356 125.147 312.854 124.867C312.957 125.389 313.314 125.901 313.699 126.311C314.544 127.205 315.53 127.848 316.582 128.342C315.821 128.612 315.079 128.9 314.347 129.198C313.727 128.817 313.145 128.36 312.619 127.801ZM296.723 150.742C297.22 144.343 301.906 139.034 303.859 136.827C304.018 136.65 304.159 136.492 304.272 136.361C306.328 133.967 310.169 131.536 314.554 129.711C314.967 129.944 315.389 130.148 315.802 130.316C310.948 132.347 306.892 134.973 304.77 137.376C303.295 139.034 298.169 144.222 296.723 150.742ZM360.037 142.797C359.803 143.198 359.577 143.57 359.258 143.85C358.883 144.194 358.347 144.409 357.671 144.502C357.239 144.558 356.807 144.567 356.385 144.53C355.953 143.831 355.502 143.142 355.033 142.462C356.319 142.956 357.615 143.254 358.911 143.077C359.324 143.021 359.728 142.909 360.084 142.723C360.066 142.741 360.047 142.769 360.037 142.797ZM368.319 139.752C367.343 140.264 366.122 140.348 364.948 140.441C363.681 140.534 362.385 140.636 361.38 141.26C361.559 140.972 361.728 140.674 361.944 140.422C363.662 138.41 367.108 139.491 369.474 138.354C369.474 138.373 369.474 138.392 369.465 138.41C369.361 138.96 368.958 139.426 368.319 139.752ZM373.155 129.32C373.005 129.562 372.761 129.739 372.479 129.925C371.915 130.298 371.258 130.726 370.648 131.248C371.268 130.251 372.31 129.45 373.324 128.77C373.315 128.956 373.258 129.152 373.155 129.32Z" fill="black"/>
<path d="M355.981 137.963C356.066 137.972 356.15 137.972 356.235 137.972C357.352 137.982 358.3 137.516 358.77 136.724C358.976 136.37 359.099 135.97 359.211 135.588C359.38 135.001 359.53 134.498 359.934 134.293C360.169 134.172 360.488 134.172 360.817 134.182C360.93 134.182 361.042 134.182 361.155 134.182C362.516 134.144 363.793 133.39 364.479 132.226C365.164 131.052 365.258 129.45 364.732 128.053C364.573 127.634 364.366 127.233 364.169 126.842C363.775 126.069 363.408 125.352 363.465 124.634C363.53 123.936 364 123.405 364.488 122.837C364.986 122.269 365.512 121.672 365.671 120.843C365.953 119.446 365.108 117.807 363.371 116.335C363.183 116.177 362.986 116.019 362.798 115.86C361.775 115.022 360.723 114.165 360.3 113.001C360.216 112.777 359.991 112.647 359.793 112.703C359.587 112.759 359.493 112.992 359.568 113.215C360.075 114.631 361.239 115.581 362.357 116.503C362.545 116.661 362.732 116.81 362.92 116.969C363.615 117.556 365.202 119.083 364.901 120.592C364.779 121.225 364.338 121.719 363.878 122.241C363.324 122.865 362.761 123.517 362.676 124.467C362.592 125.435 363.042 126.32 363.474 127.168C363.671 127.55 363.859 127.913 363.991 128.276C364.423 129.441 364.347 130.763 363.775 131.732C363.211 132.701 362.15 133.325 361.023 133.353C360.92 133.353 360.817 133.353 360.714 133.353C360.329 133.353 359.897 133.343 359.502 133.539C358.836 133.874 358.62 134.61 358.432 135.262C358.329 135.625 358.225 135.961 358.066 136.231C357.718 136.808 356.995 137.153 356.122 137.143C355.286 137.134 354.422 136.836 353.577 136.557C353.361 136.482 353.155 136.603 353.108 136.817C353.061 137.032 353.202 137.274 353.418 137.339C354.225 137.609 355.099 137.907 355.981 137.963ZM333.512 127.811C333.699 127.82 333.859 127.689 333.878 127.485C333.897 127.261 333.737 127.037 333.521 126.991L328.826 125.938C328.61 125.892 328.375 125.836 328.216 125.724C327.812 125.454 327.756 124.923 327.718 124.085C327.681 123.34 327.634 122.492 327.098 121.849C326.779 121.468 326.366 121.263 326.009 121.086C325.84 121.002 325.671 120.918 325.53 120.825C324.817 120.368 324.31 119.446 324.206 118.431C324.122 117.602 324.272 116.727 324.685 115.6C324.742 115.441 324.807 115.292 324.892 115.218C325.023 115.106 325.277 115.097 325.502 115.097C326.272 115.078 327.089 115.041 327.803 114.705C328.648 114.314 329.202 113.541 329.239 112.684C329.249 112.535 329.239 112.386 329.23 112.237C329.211 111.967 329.202 111.734 329.286 111.594C329.361 111.473 329.53 111.389 329.699 111.324C330.347 111.054 331.033 110.849 331.728 110.71C331.934 110.672 332.056 110.458 331.99 110.225C331.925 110.002 331.709 109.853 331.502 109.89C330.751 110.03 330.028 110.253 329.333 110.542C329.08 110.654 328.789 110.793 328.61 111.082C328.394 111.427 328.413 111.837 328.432 112.19C328.441 112.321 328.441 112.442 328.441 112.554C328.413 113.243 327.887 113.718 327.408 113.942C326.817 114.212 326.113 114.249 325.39 114.268C325.08 114.277 324.657 114.286 324.347 114.556C324.141 114.743 324.037 114.985 323.944 115.227C323.634 116.065 323.296 117.192 323.418 118.431C323.549 119.735 324.225 120.918 325.174 121.533C325.361 121.654 325.549 121.747 325.737 121.84C326.047 121.998 326.338 122.138 326.535 122.371C326.864 122.762 326.901 123.386 326.929 124.048C326.976 124.905 327.023 125.873 327.85 126.432C328.15 126.637 328.488 126.711 328.751 126.767L333.446 127.82C333.474 127.811 333.493 127.811 333.512 127.811ZM352.648 173.711C352.77 173.721 352.883 173.674 352.948 173.572C354.366 171.541 356.385 168.421 357.446 164.77C358.178 162.255 358.77 158.389 357.427 154.282C357.239 153.714 357.023 153.155 356.817 152.605C356.282 151.227 355.784 149.932 355.775 148.609C355.775 148.386 355.596 148.172 355.38 148.153C355.164 148.125 354.986 148.293 354.986 148.516C354.995 150.007 355.549 151.45 356.094 152.838C356.3 153.369 356.516 153.928 356.695 154.468C357.962 158.361 357.39 162.041 356.695 164.444C355.897 167.182 354.545 169.827 352.3 173.031C352.178 173.208 352.225 173.469 352.404 173.618C352.479 173.674 352.563 173.702 352.648 173.711ZM318.685 133.623C318.582 133.567 318.46 133.557 318.338 133.613C316.066 134.768 312.732 136.613 309.99 139.342C308.103 141.223 305.69 144.334 304.882 148.507C304.77 149.084 304.695 149.671 304.62 150.239C304.432 151.674 304.244 153.024 303.605 154.189C303.493 154.384 303.559 154.645 303.737 154.766C303.915 154.878 304.159 154.813 304.272 154.617C304.995 153.313 305.192 151.804 305.389 150.351C305.465 149.792 305.54 149.215 305.643 148.665C306.404 144.707 308.713 141.745 310.516 139.947C312.573 137.907 315.08 136.184 318.667 134.359C318.864 134.256 318.948 134.014 318.854 133.8C318.817 133.734 318.751 133.669 318.685 133.623Z" fill="#3B3B3B"/>
<path d="M263.672 225.76C265.578 225.76 268.067 225.033 268.837 222.267L268.846 222.249C268.874 222.118 269.578 219.128 267.841 217.396C266.696 216.259 264.846 215.98 262.33 216.576L262.639 217.862C264.677 217.386 266.114 217.545 266.902 218.327C268.067 219.482 267.588 221.783 267.56 221.932C266.668 225.117 262.78 224.382 262.621 224.344L262.358 225.639C262.724 225.713 263.184 225.76 263.672 225.76Z" fill="#E68192"/>
<path d="M262.723 213.26H245.043C244.611 213.26 244.263 213.605 244.263 214.033V225.089C244.263 228.321 246.902 230.939 250.16 230.939H257.071C260.573 230.939 263.409 228.126 263.409 224.651V213.949C263.409 213.558 263.099 213.26 262.723 213.26Z" fill="#FF94A6"/>
<path d="M263.409 215.56H244.263V216.883H263.409V215.56Z" fill="#E68192"/>
<path d="M280.263 228.582C280.291 228.535 280.32 228.489 280.348 228.442C280.667 228.032 280.986 227.622 281.305 227.212C282.62 225.918 284.104 224.716 285.747 223.822C280.789 220.329 277.071 217.712 277.071 217.712C272.16 214.666 267.784 215.523 266.216 216.352C264.601 217.2 264.244 219.081 264.489 220.003C265.136 231.562 274.301 222.853 277.371 226.002C277.587 226.179 278.864 227.334 280.263 228.582Z" fill="#6E3B25"/>
<path d="M326.771 248.524C334.283 245.72 348.387 238.213 350.377 249.427C352.358 260.604 324.039 261.62 316.452 260.269C307.87 258.732 292.931 241.929 284.818 234.99C283.278 233.667 277.457 230.109 277.654 227.408C277.579 228.377 285.072 222.267 284.452 222.257C291.128 222.444 299.983 233.863 306.048 236.778C315.616 241.37 321.156 249.12 326.771 248.524Z" fill="#F2BE66"/>
<path d="M323.962 191.12C322.798 192.387 321.258 195.545 319.7 195.852C313.653 197.063 306.789 186.631 306.441 186.053C305.747 186.864 304.122 186.975 304 186.51C303.859 185.532 304.817 180.409 303.859 177.605C302.376 173.339 300.714 166.055 301.69 162.609C303.418 167.136 309.427 169.856 316.723 170.852C325.136 172.007 332.423 170.554 334.376 165.506C335.624 163.056 337.249 162.302 338 162.581C339.953 163.289 339.653 165.273 339.662 165.506C339.624 167.294 338.826 169.157 338.16 170.89C335.962 176.618 336.404 180.986 336.554 183.976C336.761 188.363 339.606 202.931 339.606 202.931C339.606 202.931 334.479 208.128 327.54 205.641C326.977 199.699 326.244 192.462 325.925 191.577C325.587 190.766 324.545 190.543 323.962 191.12Z" fill="#6E3B25"/>
<path d="M316.723 172.556C309.427 171.55 303.643 167.684 301.915 163.158C301.765 162.748 301.784 163.018 301.699 162.599C303.756 166.93 309.511 169.836 316.845 170.842C324.694 171.922 330.967 170.767 333.812 166.66C331.859 171.718 325.126 173.711 316.723 172.556Z" fill="#3B1A0B"/>
<path d="M274.461 259.589C274.958 261.209 273.353 264.916 274.169 265.345C272.094 265.419 266.245 264.115 264.254 263.557C261.578 262.802 258.742 262.271 255.963 262.169C253.484 262.076 243.972 261.489 248.695 257.67C251.606 255.313 255.418 255.546 258.93 255.826C261.465 256.021 264 256.236 266.526 256.506C267.709 256.636 269.428 256.711 270.545 257.018C272.432 257.53 273.803 257.428 274.461 259.589Z" fill="#6E3B25"/>
<path d="M320.706 268.242C320.781 269.527 320.838 271.269 320.931 273.188H370.687C368.668 264.675 365.523 253.171 364.321 250.098C363.42 247.769 358.978 222.919 356.443 215.085C352.8 203.824 339.448 200.481 339.307 200.518C339.26 200.527 339.222 200.546 339.185 200.564C337.579 202.26 332.471 207.056 327.035 202.558C326.697 202.567 326.359 202.716 326.199 202.986C324.415 204.979 310.509 235.53 310.415 235.977C308.546 244.621 316.18 253.088 316.265 253.199C319.57 257.707 320.603 262.001 320.706 268.242Z" fill="#FDC25E"/>
<path d="M318.666 230.044C322.422 223.003 330.788 211.257 339.765 218.355C348.713 225.434 338.666 234.077 333.661 239.508C327.774 245.897 321.971 255.798 314.929 260.865C306.178 267.162 291.126 266.156 280.412 266.286C278.732 266.305 273.877 267.097 271.286 266.165C270.685 265.951 270.488 265.196 270.891 264.703C272.15 263.129 273.154 258.947 272.225 257.456C271.999 257.093 272.093 256.618 272.469 256.404C278.168 253.116 291.398 256.646 297.483 254.653C307.464 251.411 313.962 238.725 318.666 230.044Z" fill="#FDD48E"/>
<path d="M310.46 188.707L315.164 186.323C315.268 186.267 315.418 186.416 315.437 186.574C315.577 188.167 315.784 194.128 310.498 189.07C310.376 188.949 310.357 188.754 310.46 188.707Z" fill="white"/>
<path d="M333.305 179.635C338.592 179.464 342.732 174.894 342.552 169.429C342.372 163.963 337.94 159.672 332.653 159.843C327.366 160.015 323.227 164.584 323.407 170.05C323.587 175.515 328.019 179.807 333.305 179.635Z" fill="#E68192"/>
<path d="M342.383 170.035C343.042 165.332 339.779 160.996 335.094 160.35C330.41 159.704 326.078 162.993 325.419 167.696C324.76 172.398 328.023 176.735 332.707 177.381C337.392 178.027 341.724 174.738 342.383 170.035Z" fill="#FF94A6"/>
<path d="M334.301 172.417C333.371 172.51 332.46 172.24 331.737 171.644C331.014 171.048 330.564 170.209 330.47 169.278C330.376 168.346 330.658 167.424 331.249 166.698C331.841 165.971 332.686 165.515 333.615 165.422C334.545 165.329 335.456 165.599 336.179 166.195C336.902 166.791 337.353 167.629 337.446 168.561C337.54 169.492 337.259 170.414 336.667 171.141C336.104 171.83 335.315 172.277 334.442 172.398C334.395 172.407 334.348 172.417 334.301 172.417ZM331.841 167.191C331.381 167.76 331.165 168.477 331.23 169.203C331.381 170.703 332.723 171.802 334.216 171.653C334.939 171.578 335.597 171.225 336.057 170.656C336.517 170.088 336.733 169.371 336.667 168.644C336.592 167.918 336.245 167.257 335.681 166.8C335.118 166.335 334.404 166.12 333.681 166.195C333.644 166.195 333.606 166.204 333.578 166.204C332.892 166.307 332.282 166.651 331.841 167.191Z" fill="white"/>
<path d="M328.488 161.575C328.488 161.575 318 139.975 302.6 139.062C302.478 139.053 305.023 136.296 305.999 135.905C306.131 135.849 306.281 135.839 306.422 135.886C308.291 136.473 323.408 142.276 333.089 160.28C333.126 160.364 328.488 161.575 328.488 161.575Z" fill="#FF94A6"/>
<path d="M110.291 127.326C123.079 127.326 133.446 117.043 133.446 104.357C133.446 91.6718 123.079 81.3882 110.291 81.3882C97.5031 81.3882 87.1362 91.6718 87.1362 104.357C87.1362 117.043 97.5031 127.326 110.291 127.326Z" fill="white"/>
<path d="M110.291 127.326C104.103 127.326 98.2912 124.942 93.9156 120.601C89.54 116.261 87.1362 110.495 87.1362 104.357C87.1362 98.2191 89.54 92.4536 93.9156 88.1131C98.2912 83.7727 104.103 81.3882 110.291 81.3882C116.479 81.3882 122.291 83.7727 126.667 88.1131C131.043 92.4536 133.446 98.2191 133.446 104.357C133.446 110.495 131.043 116.261 126.667 120.601C122.291 124.933 116.479 127.326 110.291 127.326ZM110.291 84.2477C99.1081 84.2477 90.0189 93.2733 90.0189 104.357C90.0189 115.451 99.1175 124.467 110.291 124.467C121.474 124.467 130.564 115.441 130.564 104.357C130.564 93.2639 121.474 84.2477 110.291 84.2477Z" fill="#B8D5F2"/>
<path d="M116.329 117.127C116.141 117.127 115.963 117.025 115.878 116.848L109.916 104.739L101.813 101.172C101.559 101.06 101.446 100.762 101.559 100.51C101.672 100.259 101.972 100.147 102.226 100.259L110.658 103.966L116.78 116.401C116.902 116.652 116.798 116.95 116.545 117.071C116.479 117.108 116.404 117.127 116.329 117.127ZM110.413 90.6839C110.094 90.6839 109.841 90.4324 109.841 90.1157V85.8405C109.841 85.5238 110.094 85.2723 110.413 85.2723C110.733 85.2723 110.986 85.5238 110.986 85.8405V90.1157C110.986 90.4324 110.723 90.6839 110.413 90.6839ZM110.413 123.498C110.094 123.498 109.841 123.247 109.841 122.93V118.58C109.841 118.263 110.094 118.012 110.413 118.012C110.733 118.012 110.986 118.263 110.986 118.58V122.93C110.986 123.237 110.723 123.498 110.413 123.498ZM129.033 105.168H124.573C124.254 105.168 124 104.916 124 104.599C124 104.283 124.254 104.031 124.573 104.031H129.033C129.352 104.031 129.606 104.283 129.606 104.599C129.606 104.907 129.352 105.168 129.033 105.168ZM96.0285 105.168H91.5684C91.2491 105.168 90.9956 104.916 90.9956 104.599C90.9956 104.283 91.2491 104.031 91.5684 104.031H96.0285C96.3477 104.031 96.6012 104.283 96.6012 104.599C96.6012 104.907 96.3477 105.168 96.0285 105.168ZM123.766 117.844C123.615 117.844 123.474 117.788 123.362 117.677L120.216 114.556C119.991 114.333 119.991 113.97 120.216 113.746C120.442 113.522 120.808 113.522 121.033 113.746L124.179 116.866C124.404 117.09 124.404 117.453 124.179 117.677C124.057 117.788 123.916 117.844 123.766 117.844ZM100.413 94.7542C100.263 94.7542 100.122 94.6984 100.01 94.5866L96.8641 91.4663C96.6388 91.2428 96.6388 90.8795 96.8641 90.656C97.0895 90.4324 97.4557 90.4324 97.6811 90.656L100.827 93.7762C101.052 93.9998 101.052 94.363 100.827 94.5866C100.714 94.6984 100.564 94.7542 100.413 94.7542ZM96.7703 117.844C96.62 117.844 96.4792 117.788 96.3665 117.677C96.1411 117.453 96.1411 117.09 96.3665 116.866L99.5496 113.709C99.7749 113.485 100.141 113.485 100.366 113.709C100.592 113.932 100.592 114.296 100.366 114.519L97.1834 117.677C97.0613 117.788 96.9111 117.844 96.7703 117.844ZM120.301 94.7915C120.151 94.7915 120.01 94.7356 119.897 94.6238C119.672 94.4003 119.672 94.037 119.897 93.8135L123.024 90.7118C123.249 90.4883 123.615 90.4883 123.841 90.7118C124.066 90.9354 124.066 91.2986 123.841 91.5222L120.714 94.6238C120.592 94.7356 120.442 94.7915 120.301 94.7915Z" fill="#B8D5F2"/>
<path d="M110.291 123.684C105.089 123.684 100.197 121.673 96.5165 118.021C92.8358 114.37 90.8076 109.517 90.8076 104.357C90.8076 99.1972 92.8358 94.3444 96.5165 90.6932C100.197 87.042 105.089 85.0301 110.291 85.0301C115.493 85.0301 120.385 87.042 124.066 90.6932C127.747 94.3444 129.775 99.1972 129.775 104.357C129.775 109.517 127.747 114.37 124.066 118.021C120.385 121.673 115.493 123.684 110.291 123.684ZM110.291 85.2443C99.6621 85.2443 91.0236 93.8228 91.0236 104.357C91.0236 114.901 99.6715 123.47 110.291 123.47C120.92 123.47 129.559 114.892 129.559 104.357C129.559 93.8135 120.92 85.2443 110.291 85.2443Z" fill="#B8D5F2"/>
<path d="M110.291 117.984C102.723 117.984 96.5542 111.874 96.5542 104.357C96.5542 96.8407 102.714 90.7305 110.291 90.7305C117.869 90.7305 124.028 96.8407 124.028 104.357C124.028 111.874 117.859 117.984 110.291 117.984ZM110.291 90.9447C102.836 90.9447 96.7702 96.9617 96.7702 104.357C96.7702 111.753 102.836 117.77 110.291 117.77C117.747 117.77 123.812 111.753 123.812 104.357C123.812 96.9617 117.747 90.9447 110.291 90.9447Z" fill="#B8D5F2"/>
<path d="M172.207 268.931C171.324 255.174 173.381 239.712 175.259 229.159C177.296 217.749 179.568 209.441 179.597 209.366L183.221 210.354C183.202 210.438 180.958 218.606 178.958 229.858C177.118 240.197 175.099 255.332 175.963 268.708L172.207 268.931Z" fill="#5C8FC5"/>
<path d="M203.381 268.559C203.381 269.415 202.827 270.114 202.16 270.114H150.517C149.841 270.114 149.296 269.415 149.296 268.559V267.003C149.296 266.146 149.841 265.448 150.517 265.448H202.16C202.827 265.448 203.381 266.146 203.381 267.003V268.559ZM199.494 248.989C199.775 249.809 199.334 250.722 198.498 251.001L196.151 251.802C195.325 252.082 194.31 251.681 193.916 250.908C193.916 250.908 180.94 225.769 174.827 209.562C167.033 188.884 164.573 165.403 164.573 165.403C164.479 164.537 165.09 163.596 165.916 163.307L168.095 162.553C168.921 162.264 169.832 162.702 170.113 163.531L199.494 248.989Z" fill="#193759"/>
<path d="M224.226 260.557C224.179 260.995 223.822 261.312 223.418 261.265L220.019 260.874C219.615 260.827 219.324 260.436 219.371 259.998L219.437 259.337C219.484 258.899 219.841 258.583 220.244 258.629L223.644 259.02C224.047 259.067 224.338 259.458 224.291 259.896L224.226 260.557ZM261.982 265.131C261.935 265.568 261.578 265.885 261.174 265.838L257.775 265.447C257.371 265.401 257.08 265.009 257.127 264.572L257.193 263.91C257.24 263.473 257.597 263.156 258 263.202L261.4 263.594C261.803 263.64 262.094 264.031 262.047 264.469L261.982 265.131ZM254.695 264.357C254.648 264.795 254.292 265.112 253.888 265.065L250.489 264.674C250.085 264.628 249.794 264.236 249.841 263.799L249.916 263.025C249.963 262.588 250.32 262.271 250.723 262.318L254.123 262.709C254.526 262.755 254.817 263.147 254.77 263.584L254.695 264.357ZM249.09 263.603C249.043 264.041 248.686 264.357 248.282 264.311L244.883 263.92C244.479 263.873 244.188 263.482 244.235 263.044L244.301 262.383C244.348 261.945 244.705 261.628 245.108 261.675L248.507 262.066C248.911 262.113 249.202 262.504 249.155 262.942L249.09 263.603ZM243.475 262.858C243.428 263.296 243.071 263.612 242.667 263.566L239.268 263.175C238.864 263.128 238.573 262.737 238.62 262.299L238.676 261.694C238.723 261.256 239.08 260.939 239.484 260.986L242.883 261.377C243.287 261.423 243.578 261.815 243.531 262.252L243.475 262.858ZM237.813 262.252C237.766 262.69 237.409 263.007 237.005 262.96L233.606 262.569C233.202 262.523 232.911 262.131 232.958 261.694L233.024 261.042C233.071 260.604 233.428 260.287 233.831 260.334L237.23 260.725C237.634 260.771 237.925 261.163 237.878 261.6L237.813 262.252ZM232.047 261.507C232 261.945 231.644 262.262 231.24 262.215L227.841 261.824C227.437 261.777 227.146 261.386 227.193 260.948L227.259 260.287C227.305 259.849 227.662 259.533 228.066 259.579L231.465 259.97C231.869 260.017 232.16 260.408 232.113 260.846L232.047 261.507Z" fill="#72A5DB"/>
<path d="M264.263 265.121L217.202 259.402C216.798 259.356 216.442 259.672 216.395 260.11L216.263 261.433C216.216 261.871 216.507 262.262 216.911 262.308L263.972 268.027C264.376 268.074 264.733 267.757 264.78 267.319L264.911 265.997C264.949 265.559 264.658 265.168 264.263 265.121Z" fill="#193759"/>
<path d="M219.399 269.452L216.874 269.024L217.935 261.545L220.46 261.973L219.399 269.452Z" fill="#193759"/>
<path d="M254.094 0H250.854V35.4128H254.094V0Z" fill="#6495C4"/>
<path d="M256.874 54.6682C257.314 52.4001 255.818 50.2074 253.531 49.7707C251.245 49.3339 249.034 50.8185 248.594 53.0865C248.154 55.3546 249.65 57.5473 251.937 57.984C254.223 58.4208 256.434 56.9362 256.874 54.6682Z" fill="#FF94A6"/>
<path d="M248.526 36.4037H256.958V32.2216H248.526V36.4037Z" fill="#558ABD"/>
<path d="M241.578 54.3117V43.7865C241.578 38.7661 245.718 34.6585 250.78 34.6585H254.714C259.775 34.6585 263.916 38.7661 263.916 43.7865V54.3117H241.578Z" fill="#6495C4"/>
<path d="M260.676 44.1125C260.676 39.7162 258 35.9625 254.31 34.6585H254.704C259.765 34.6585 263.906 38.7661 263.906 43.7865V54.3117H260.676V44.1125Z" fill="#84AFD9"/>
<path d="M218.188 0H214.949V65.9262H218.188V0Z" fill="#6495C4"/>
<path d="M220.858 85.842C221.393 83.5941 219.99 81.3415 217.724 80.8107C215.457 80.2799 213.187 81.6719 212.652 83.9198C212.116 86.1677 213.52 88.4203 215.786 88.9511C218.052 89.4819 220.323 88.0899 220.858 85.842Z" fill="#FF94A6"/>
<path d="M212.526 67.3707H220.958V63.1886H212.526V67.3707Z" fill="#558ABD"/>
<path d="M205.578 85.2817V74.7566C205.578 69.7362 209.718 65.6286 214.78 65.6286H218.714C223.775 65.6286 227.916 69.7362 227.916 74.7566V85.2817H205.578Z" fill="#6495C4"/>
<path d="M224.676 75.0826C224.676 70.6863 222 66.9326 218.31 65.6286H218.704C223.765 65.6286 227.906 69.7362 227.906 74.7566V85.2817H224.676V75.0826Z" fill="#84AFD9"/>
<path d="M374.019 270.208C373.991 271.391 373.963 272.564 373.916 273.747H397.212C398.376 264.871 399.55 256.004 400.648 247.118C401.906 236.956 407.512 208.231 386.845 214.182C368.977 219.324 374.301 256.59 374.019 270.208Z" fill="#B2CFED"/>
<path d="M102.817 267.226C102.817 268.148 102.057 268.903 101.127 268.903H92.4885C91.5589 268.903 90.7983 268.148 90.7983 267.226V216.929C90.7983 216.007 91.5589 215.252 92.4885 215.252H101.127C102.057 215.252 102.817 216.007 102.817 216.929V267.226Z" fill="#FF94A6"/>
<path d="M96.8078 263.175C98.7784 263.175 100.376 261.59 100.376 259.636C100.376 257.681 98.7784 256.096 96.8078 256.096C94.8372 256.096 93.2397 257.681 93.2397 259.636C93.2397 261.59 94.8372 263.175 96.8078 263.175Z" fill="white"/>
<path d="M96.8076 262.43C98.3634 262.43 99.6245 261.179 99.6245 259.635C99.6245 258.092 98.3634 256.841 96.8076 256.841C95.2519 256.841 93.9907 258.092 93.9907 259.635C93.9907 261.179 95.2519 262.43 96.8076 262.43Z" fill="#FF94A6"/>
<path d="M93.9909 245.897C93.5778 245.897 93.2397 245.561 93.2397 245.151V218.606C93.2397 218.196 93.5778 217.861 93.9909 217.861H99.6247C100.038 217.861 100.376 218.196 100.376 218.606V245.151C100.376 245.561 100.038 245.897 99.6247 245.897H93.9909Z" fill="white"/>
<path d="M98.7043 243.801V219.91C98.7043 219.779 98.8076 219.677 98.9391 219.677C99.0705 219.677 99.1738 219.779 99.1738 219.91V243.801C99.1738 243.931 99.0705 244.034 98.9391 244.034C98.8076 244.034 98.7043 243.931 98.7043 243.801ZM97.2865 230.342V219.91C97.2865 219.779 97.3898 219.677 97.5212 219.677C97.6527 219.677 97.756 219.779 97.756 219.91V230.342C97.756 230.472 97.6527 230.575 97.5212 230.575C97.3898 230.575 97.2865 230.472 97.2865 230.342ZM97.2865 243.801V232.018C97.2865 231.888 97.3898 231.786 97.5212 231.786C97.6527 231.786 97.756 231.888 97.756 232.018V243.801C97.756 243.931 97.6527 244.034 97.5212 244.034C97.3898 244.034 97.2865 243.931 97.2865 243.801ZM95.8592 243.848V219.91C95.8592 219.779 95.9625 219.677 96.094 219.677C96.2254 219.677 96.3287 219.779 96.3287 219.91V243.848C96.3287 243.978 96.2254 244.08 96.094 244.08C95.9625 244.08 95.8592 243.978 95.8592 243.848ZM94.4414 224.567V219.91C94.4414 219.779 94.5447 219.677 94.6761 219.677C94.8076 219.677 94.9109 219.779 94.9109 219.91V224.567C94.9109 224.697 94.8076 224.8 94.6761 224.8C94.5447 224.8 94.4414 224.697 94.4414 224.567ZM94.4414 236.07V225.918C94.4414 225.787 94.5447 225.685 94.6761 225.685C94.8076 225.685 94.9109 225.787 94.9109 225.918V236.07C94.9109 236.201 94.8076 236.303 94.6761 236.303C94.5447 236.303 94.4414 236.201 94.4414 236.07ZM94.4414 243.801V237.188C94.4414 237.057 94.5447 236.955 94.6761 236.955C94.8076 236.955 94.9109 237.057 94.9109 237.188V243.801C94.9109 243.931 94.8076 244.034 94.6761 244.034C94.5447 244.034 94.4414 243.931 94.4414 243.801Z" fill="#AB4858"/>
<path d="M139.718 267.226C139.718 268.148 138.958 268.903 138.028 268.903H129.39C128.46 268.903 127.7 268.148 127.7 267.226V216.929C127.7 216.007 128.46 215.253 129.39 215.253H138.028C138.958 215.253 139.718 216.007 139.718 216.929V267.226Z" fill="#FF94A6"/>
<path d="M133.709 263.175C135.68 263.175 137.277 261.59 137.277 259.635C137.277 257.68 135.68 256.096 133.709 256.096C131.739 256.096 130.141 257.68 130.141 259.635C130.141 261.59 131.739 263.175 133.709 263.175Z" fill="white"/>
<path d="M133.709 262.429C135.265 262.429 136.526 261.178 136.526 259.635C136.526 258.092 135.265 256.841 133.709 256.841C132.154 256.841 130.893 258.092 130.893 259.635C130.893 261.178 132.154 262.429 133.709 262.429Z" fill="#E68192"/>
<path d="M130.892 245.897C130.479 245.897 130.141 245.561 130.141 245.151V218.606C130.141 218.196 130.479 217.861 130.892 217.861H136.526C136.939 217.861 137.277 218.196 137.277 218.606V245.151C137.277 245.561 136.939 245.897 136.526 245.897H130.892Z" fill="white"/>
<path d="M135.606 243.801V219.91C135.606 219.779 135.709 219.677 135.841 219.677C135.972 219.677 136.076 219.779 136.076 219.91V243.801C136.076 243.931 135.972 244.034 135.841 244.034C135.719 244.034 135.606 243.931 135.606 243.801ZM134.188 230.342V219.91C134.188 219.779 134.292 219.677 134.423 219.677C134.555 219.677 134.658 219.779 134.658 219.91V230.342C134.658 230.472 134.555 230.575 134.423 230.575C134.292 230.575 134.188 230.472 134.188 230.342ZM134.188 243.801V232.018C134.188 231.888 134.292 231.785 134.423 231.785C134.555 231.785 134.658 231.888 134.658 232.018V243.801C134.658 243.931 134.555 244.034 134.423 244.034C134.292 244.034 134.188 243.931 134.188 243.801ZM132.761 243.848V219.91C132.761 219.779 132.864 219.677 132.996 219.677C133.127 219.677 133.231 219.779 133.231 219.91V243.848C133.231 243.978 133.127 244.08 132.996 244.08C132.864 244.08 132.761 243.978 132.761 243.848ZM131.343 224.567V219.91C131.343 219.779 131.447 219.677 131.578 219.677C131.709 219.677 131.813 219.779 131.813 219.91V224.567C131.813 224.697 131.709 224.8 131.578 224.8C131.447 224.8 131.343 224.697 131.343 224.567ZM131.343 236.07V225.917C131.343 225.787 131.447 225.685 131.578 225.685C131.709 225.685 131.813 225.787 131.813 225.917V236.07C131.813 236.2 131.709 236.303 131.578 236.303C131.447 236.303 131.343 236.2 131.343 236.07ZM131.343 243.801V237.188C131.343 237.057 131.447 236.955 131.578 236.955C131.709 236.955 131.813 237.057 131.813 237.188V243.801C131.813 243.931 131.709 244.034 131.578 244.034C131.447 244.034 131.343 243.931 131.343 243.801Z" fill="#AB4858"/>
<path d="M115.4 267.226C115.4 268.148 114.639 268.903 113.71 268.903H105.071C104.141 268.903 103.381 268.148 103.381 267.226V216.929C103.381 216.007 104.141 215.253 105.071 215.253H113.71C114.639 215.253 115.4 216.007 115.4 216.929V267.226Z" fill="#FDC76A"/>
<path d="M109.39 263.175C111.361 263.175 112.958 261.59 112.958 259.635C112.958 257.68 111.361 256.096 109.39 256.096C107.42 256.096 105.822 257.68 105.822 259.635C105.822 261.59 107.42 263.175 109.39 263.175Z" fill="white"/>
<path d="M109.39 262.429C110.946 262.429 112.207 261.178 112.207 259.635C112.207 258.092 110.946 256.841 109.39 256.841C107.834 256.841 106.573 258.092 106.573 259.635C106.573 261.178 107.834 262.429 109.39 262.429Z" fill="#FDC76A"/>
<path d="M106.573 245.897C106.16 245.897 105.822 245.561 105.822 245.151V218.606C105.822 218.196 106.16 217.861 106.573 217.861H112.207C112.62 217.861 112.958 218.196 112.958 218.606V245.151C112.958 245.561 112.62 245.897 112.207 245.897H106.573Z" fill="white"/>
<path d="M107.493 243.801V219.91C107.493 219.779 107.39 219.677 107.259 219.677C107.127 219.677 107.024 219.779 107.024 219.91V243.801C107.024 243.931 107.127 244.034 107.259 244.034C107.39 244.034 107.493 243.931 107.493 243.801ZM108.911 230.342V219.91C108.911 219.779 108.808 219.677 108.677 219.677C108.545 219.677 108.442 219.779 108.442 219.91V230.342C108.442 230.472 108.545 230.575 108.677 230.575C108.808 230.575 108.911 230.472 108.911 230.342ZM108.911 243.801V232.018C108.911 231.888 108.808 231.785 108.677 231.785C108.545 231.785 108.442 231.888 108.442 232.018V243.801C108.442 243.931 108.545 244.034 108.677 244.034C108.808 244.034 108.911 243.931 108.911 243.801ZM110.338 243.848V219.91C110.338 219.779 110.235 219.677 110.104 219.677C109.972 219.677 109.869 219.779 109.869 219.91V243.848C109.869 243.978 109.972 244.08 110.104 244.08C110.235 244.08 110.338 243.978 110.338 243.848ZM111.756 224.567V219.91C111.756 219.779 111.653 219.677 111.522 219.677C111.39 219.677 111.287 219.779 111.287 219.91V224.567C111.287 224.697 111.39 224.8 111.522 224.8C111.653 224.8 111.756 224.697 111.756 224.567ZM111.756 236.07V225.917C111.756 225.787 111.653 225.685 111.522 225.685C111.39 225.685 111.287 225.787 111.287 225.917V236.07C111.287 236.2 111.39 236.303 111.522 236.303C111.653 236.303 111.756 236.2 111.756 236.07ZM111.756 243.801V237.188C111.756 237.057 111.653 236.955 111.522 236.955C111.39 236.955 111.287 237.057 111.287 237.188V243.801C111.287 243.931 111.39 244.034 111.522 244.034C111.653 244.034 111.756 243.931 111.756 243.801Z" fill="#D98C07"/>
<path d="M127.606 267.226C127.606 268.148 126.846 268.903 125.916 268.903H117.278C116.348 268.903 115.587 268.148 115.587 267.226V216.929C115.587 216.007 116.348 215.253 117.278 215.253H125.916C126.846 215.253 127.606 216.007 127.606 216.929V267.226Z" fill="#81A4C7"/>
<path d="M121.597 263.175C123.567 263.175 125.165 261.59 125.165 259.635C125.165 257.68 123.567 256.096 121.597 256.096C119.626 256.096 118.029 257.68 118.029 259.635C118.029 261.59 119.626 263.175 121.597 263.175Z" fill="white"/>
<path d="M121.597 262.429C123.152 262.429 124.414 261.178 124.414 259.635C124.414 258.092 123.152 256.841 121.597 256.841C120.041 256.841 118.78 258.092 118.78 259.635C118.78 261.178 120.041 262.429 121.597 262.429Z" fill="#81A4C7"/>
<path d="M118.78 245.897C118.367 245.897 118.029 245.561 118.029 245.151V218.606C118.029 218.196 118.367 217.861 118.78 217.861H124.414C124.827 217.861 125.165 218.196 125.165 218.606V245.151C125.165 245.561 124.827 245.897 124.414 245.897H118.78Z" fill="white"/>
<path d="M123.493 243.801V219.91C123.493 219.779 123.597 219.677 123.728 219.677C123.86 219.677 123.963 219.779 123.963 219.91V243.801C123.963 243.931 123.86 244.034 123.728 244.034C123.606 244.034 123.493 243.931 123.493 243.801ZM122.076 230.342V219.91C122.076 219.779 122.179 219.677 122.31 219.677C122.442 219.677 122.545 219.779 122.545 219.91V230.342C122.545 230.472 122.442 230.575 122.31 230.575C122.179 230.575 122.076 230.472 122.076 230.342ZM122.076 243.801V232.018C122.076 231.888 122.179 231.785 122.31 231.785C122.442 231.785 122.545 231.888 122.545 232.018V243.801C122.545 243.931 122.442 244.034 122.31 244.034C122.179 244.034 122.076 243.931 122.076 243.801ZM120.648 243.848V219.91C120.648 219.779 120.752 219.677 120.883 219.677C121.015 219.677 121.118 219.779 121.118 219.91V243.848C121.118 243.978 121.015 244.08 120.883 244.08C120.752 244.08 120.648 243.978 120.648 243.848ZM119.23 224.567V219.91C119.23 219.779 119.334 219.677 119.465 219.677C119.597 219.677 119.7 219.779 119.7 219.91V224.567C119.7 224.697 119.597 224.8 119.465 224.8C119.334 224.8 119.23 224.697 119.23 224.567ZM119.23 236.07V225.917C119.23 225.787 119.334 225.685 119.465 225.685C119.597 225.685 119.7 225.787 119.7 225.917V236.07C119.7 236.2 119.597 236.303 119.465 236.303C119.334 236.303 119.23 236.2 119.23 236.07ZM119.23 243.801V237.188C119.23 237.057 119.334 236.955 119.465 236.955C119.597 236.955 119.7 237.057 119.7 237.188V243.801C119.7 243.931 119.597 244.034 119.465 244.034C119.334 244.034 119.23 243.931 119.23 243.801Z" fill="#193759"/>
<path d="M68.244 274.064H347.156C348.912 274.064 350.33 272.657 350.33 270.916C350.33 269.174 348.912 267.767 347.156 267.767H68.244C66.4882 267.767 65.0703 269.174 65.0703 270.916C65.0703 272.657 66.4882 274.064 68.244 274.064Z" fill="#79A9D9"/>
</svg>
