<svg width="26" height="26" viewBox="0 0 26 26" fill="none" xmlns="http://www.w3.org/2000/svg">
<path d="M13.0003 24.6458C6.57616 24.6458 1.35449 19.4242 1.35449 13C1.35449 6.57582 6.57616 1.35416 13.0003 1.35416C19.4245 1.35416 24.6462 6.57582 24.6462 13C24.6462 19.4242 19.4245 24.6458 13.0003 24.6458ZM13.0003 2.97916C7.47533 2.97916 2.97949 7.47499 2.97949 13C2.97949 18.525 7.47533 23.0208 13.0003 23.0208C18.5253 23.0208 23.0212 18.525 23.0212 13C23.0212 7.47499 18.5253 2.97916 13.0003 2.97916Z" fill="#111858"/>
<path d="M11.4616 16.8779C11.2449 16.8779 11.0391 16.7913 10.8874 16.6396L7.82156 13.5738C7.5074 13.2596 7.5074 12.7396 7.82156 12.4254C8.13573 12.1113 8.65573 12.1113 8.9699 12.4254L11.4616 14.9171L17.0299 9.34875C17.3441 9.03459 17.8641 9.03459 18.1782 9.34875C18.4924 9.66292 18.4924 10.1829 18.1782 10.4971L12.0357 16.6396C11.8841 16.7913 11.6782 16.8779 11.4616 16.8779Z" fill="#111858"/>
</svg>
