<svg width="121" height="39" viewBox="0 0 121 39" fill="none" xmlns="http://www.w3.org/2000/svg">
<path d="M4.19999 14.28H7.67999V3.5H11.64V0.28H0.23999V3.5H4.19999V14.28ZM20.8689 14.28H25.0289L21.2089 9.36C23.5089 8.88 24.6289 7.44 24.6289 4.98C24.6289 1.88 22.8489 0.28 19.2689 0.28H13.1689V14.28H16.6289V9.54H17.4289L20.8689 14.28ZM19.0689 3.44C20.4489 3.44 21.0289 3.86 21.0289 4.98C21.0289 6.1 20.4289 6.54 19.0689 6.54H16.6289V3.44H19.0689ZM26.265 9.06C26.265 12.56 28.805 14.56 32.325 14.56C35.845 14.56 38.385 12.56 38.385 9.06V0.28H34.885V8.8C34.885 10.38 33.945 11.26 32.325 11.26C30.705 11.26 29.765 10.38 29.765 8.8V0.28H26.265V9.06ZM39.7786 11.5C40.8186 13.42 43.1186 14.56 45.9386 14.56C49.4786 14.56 51.5986 12.72 51.5986 10.02C51.5986 7.94 50.3586 6.54 47.7986 5.92L45.4586 5.36C44.0986 5.04 43.6586 4.68 43.6586 4.18C43.6586 3.54 44.2986 3.1 45.5986 3.1C46.9386 3.1 48.0186 3.56 48.8786 4.5L51.2386 2.56C50.2186 0.96 48.1786 0 45.6186 0C42.1986 0 40.1386 1.74 40.1386 4.26C40.1386 6.32 41.4786 7.76 44.1186 8.4L46.3786 8.94C47.6586 9.24 48.0786 9.62 48.0786 10.2C48.0786 10.98 47.3986 11.44 46.0586 11.44C44.4386 11.44 43.0186 10.76 42.1386 9.58L39.7786 11.5ZM56.1539 14.28H59.6339V3.5H63.5939V0.28H52.1939V3.5H56.1539V14.28ZM68.5828 11.14V8.76H74.9228V5.66H68.5828V3.42H75.4428V0.28H65.1228V14.28H75.6428V11.14H68.5828ZM90.572 7.28C90.572 2.9 87.712 0.28 83.652 0.28H77.872V14.28H83.652C87.712 14.28 90.572 11.66 90.572 7.28ZM86.932 7.28C86.932 9.82 85.792 11.06 83.652 11.06H81.352V3.5H83.652C85.792 3.5 86.932 4.74 86.932 7.28Z" fill="#111858"/>
<path d="M10.92 33.28H14.6L9.32 19.28H5.28L0 33.28H3.68L4.62 30.56H9.98L10.92 33.28ZM5.64 27.64L7.3 22.86L8.96 27.64H5.64ZM28.7838 26.28C28.7838 21.9 25.9238 19.28 21.8638 19.28H16.0838V33.28H21.8638C25.9238 33.28 28.7838 30.66 28.7838 26.28ZM25.1438 26.28C25.1438 28.82 24.0038 30.06 21.8638 30.06H19.5638V22.5H21.8638C24.0038 22.5 25.1438 23.74 25.1438 26.28ZM39.2248 19.28L35.9648 29.18L32.7048 19.28H28.9648L33.9448 33.28H37.9848L42.9648 19.28H39.2248ZM44.4831 33.28H47.9631V19.28H44.4831V33.28ZM49.8122 30.5C50.8522 32.42 53.1522 33.56 55.9722 33.56C59.5122 33.56 61.6322 31.72 61.6322 29.02C61.6322 26.94 60.3922 25.54 57.8322 24.92L55.4922 24.36C54.1322 24.04 53.6922 23.68 53.6922 23.18C53.6922 22.54 54.3322 22.1 55.6322 22.1C56.9722 22.1 58.0522 22.56 58.9122 23.5L61.2722 21.56C60.2522 19.96 58.2122 19 55.6522 19C52.2322 19 50.1722 20.74 50.1722 23.26C50.1722 25.32 51.5122 26.76 54.1522 27.4L56.4122 27.94C57.6922 28.24 58.1122 28.62 58.1122 29.2C58.1122 29.98 57.4322 30.44 56.0922 30.44C54.4722 30.44 53.0522 29.76 52.1722 28.58L49.8122 30.5ZM62.9447 26.3C62.8847 30.4 66.1047 33.64 70.3647 33.56C74.6247 33.64 77.8447 30.4 77.7847 26.3C77.8447 22.2 74.6247 18.92 70.3647 19C66.1047 18.92 62.8847 22.2 62.9447 26.3ZM74.1447 26.3C74.1447 28.64 72.6247 30.28 70.3647 30.28C68.1047 30.28 66.5847 28.64 66.5847 26.3C66.5847 23.96 68.1047 22.28 70.3647 22.28C72.6247 22.28 74.1447 23.96 74.1447 26.3ZM87.6119 33.28H91.7719L87.9519 28.36C90.2519 27.88 91.3719 26.44 91.3719 23.98C91.3719 20.88 89.5919 19.28 86.0119 19.28H79.9119V33.28H83.3719V28.54H84.1719L87.6119 33.28ZM85.8119 22.44C87.1919 22.44 87.7719 22.86 87.7719 23.98C87.7719 25.1 87.1719 25.54 85.8119 25.54H83.3719V22.44H85.8119Z" fill="#111858"/>
<mask id="mask0_1086_29738" style="mask-type:alpha" maskUnits="userSpaceOnUse" x="100" y="5" width="20" height="20">
<path d="M103.801 14.7947C103.358 15.224 102.97 15.7009 102.637 16.2255C102.305 16.7501 102.012 17.3145 101.759 17.9186C101.585 18.3955 101.434 18.8725 101.307 19.3494C101.181 19.8104 101.078 20.2714 100.999 20.7325C100.983 20.9391 100.967 21.1458 100.951 21.3525C100.935 21.5591 100.912 21.7658 100.88 21.9725V24.3571H105.63V21.9725C105.662 21.7658 105.693 21.5671 105.725 21.3763C105.741 21.1696 105.765 20.963 105.796 20.7563C106.033 19.7865 106.438 19.0155 107.008 18.4432C107.831 17.6166 108.955 17.2032 110.38 17.2032C112.375 17.2032 113.76 17.9981 114.536 19.5879C114.79 20.0171 114.988 20.8119 115.13 21.9725V24.3571H119.88V21.9725C119.817 21.5591 119.761 21.1537 119.713 20.7563C119.666 20.343 119.611 19.9296 119.548 19.5163C119.073 17.6245 118.249 16.0904 117.078 14.914C115.431 13.2606 113.198 12.4339 110.38 12.4339C108.385 12.4339 107 11.639 106.223 10.0493C105.97 9.62003 105.773 8.82513 105.63 7.66463V5.28003H100.88V7.66463C100.88 9.31803 101.165 10.7727 101.735 12.0285C102.242 13.1096 102.93 14.0316 103.801 14.7947Z" fill="#278BFF"/>
</mask>
<g mask="url(#mask0_1086_29738)">
<path d="M116.88 11.78L98.88 -2.21997L100.38 24.78H123.38L116.88 11.78Z" fill="url(#paint0_linear_1086_29738)"/>
</g>
<g clip-path="url(#clip0_1086_29738)">
<path d="M110.38 8.28003C116.731 8.28003 121.88 13.4288 121.88 19.78C121.88 26.1313 116.731 31.28 110.38 31.28C104.029 31.28 98.88 26.1313 98.88 19.78C98.88 13.4288 104.029 8.28003 110.38 8.28003Z" fill="#111858"/>
</g>
<path d="M115.033 11.28C117.38 11.28 119.88 9.28003 119.88 6.78003L119.88 5.28003H115.033V11.28Z" fill="#2957E7"/>
<defs>
<linearGradient id="paint0_linear_1086_29738" x1="104.501" y1="11.8268" x2="114.618" y2="34.0959" gradientUnits="userSpaceOnUse">
<stop offset="0.133068" stop-color="#3CB5F8"/>
<stop offset="0.238813" stop-color="#3491FA"/>
<stop offset="0.604133" stop-color="#2853E6"/>
<stop offset="1" stop-color="#43D6DE"/>
</linearGradient>
<clipPath id="clip0_1086_29738">
<rect width="21" height="12" fill="white" transform="translate(99.88 26.28)"/>
</clipPath>
</defs>
</svg>
