<svg width="225" height="142" viewBox="0 0 225 142" fill="none" xmlns="http://www.w3.org/2000/svg">
<g filter="url(#filter0_d_1012_33226)">
<path d="M58.2 64.28H61.68V53.5H65.64V50.28H54.24V53.5H58.2V64.28ZM74.8689 64.28H79.0289L75.2089 59.36C77.5089 58.88 78.6289 57.44 78.6289 54.98C78.6289 51.88 76.8489 50.28 73.2689 50.28H67.1689V64.28H70.6289V59.54H71.4289L74.8689 64.28ZM73.0689 53.44C74.4489 53.44 75.0289 53.86 75.0289 54.98C75.0289 56.1 74.4289 56.54 73.0689 56.54H70.6289V53.44H73.0689ZM80.265 59.06C80.265 62.56 82.805 64.56 86.325 64.56C89.845 64.56 92.385 62.56 92.385 59.06V50.28H88.885V58.8C88.885 60.38 87.945 61.26 86.325 61.26C84.705 61.26 83.765 60.38 83.765 58.8V50.28H80.265V59.06ZM93.7786 61.5C94.8186 63.42 97.1186 64.56 99.9386 64.56C103.479 64.56 105.599 62.72 105.599 60.02C105.599 57.94 104.359 56.54 101.799 55.92L99.4586 55.36C98.0986 55.04 97.6586 54.68 97.6586 54.18C97.6586 53.54 98.2986 53.1 99.5986 53.1C100.939 53.1 102.019 53.56 102.879 54.5L105.239 52.56C104.219 50.96 102.179 50 99.6186 50C96.1986 50 94.1386 51.74 94.1386 54.26C94.1386 56.32 95.4786 57.76 98.1186 58.4L100.379 58.94C101.659 59.24 102.079 59.62 102.079 60.2C102.079 60.98 101.399 61.44 100.059 61.44C98.4386 61.44 97.0186 60.76 96.1386 59.58L93.7786 61.5ZM110.154 64.28H113.634V53.5H117.594V50.28H106.194V53.5H110.154V64.28ZM122.583 61.14V58.76H128.923V55.66H122.583V53.42H129.443V50.28H119.123V64.28H129.643V61.14H122.583ZM144.572 57.28C144.572 52.9 141.712 50.28 137.652 50.28H131.872V64.28H137.652C141.712 64.28 144.572 61.66 144.572 57.28ZM140.932 57.28C140.932 59.82 139.792 61.06 137.652 61.06H135.352V53.5H137.652C139.792 53.5 140.932 54.74 140.932 57.28Z" fill="white"/>
<path d="M64.92 83.28H68.6L63.32 69.28H59.28L54 83.28H57.68L58.62 80.56H63.98L64.92 83.28ZM59.64 77.64L61.3 72.86L62.96 77.64H59.64ZM82.7838 76.28C82.7838 71.9 79.9238 69.28 75.8638 69.28H70.0838V83.28H75.8638C79.9238 83.28 82.7838 80.66 82.7838 76.28ZM79.1438 76.28C79.1438 78.82 78.0038 80.06 75.8638 80.06H73.5638V72.5H75.8638C78.0038 72.5 79.1438 73.74 79.1438 76.28ZM93.2248 69.28L89.9648 79.18L86.7048 69.28H82.9648L87.9448 83.28H91.9848L96.9648 69.28H93.2248ZM98.4831 83.28H101.963V69.28H98.4831V83.28ZM103.812 80.5C104.852 82.42 107.152 83.56 109.972 83.56C113.512 83.56 115.632 81.72 115.632 79.02C115.632 76.94 114.392 75.54 111.832 74.92L109.492 74.36C108.132 74.04 107.692 73.68 107.692 73.18C107.692 72.54 108.332 72.1 109.632 72.1C110.972 72.1 112.052 72.56 112.912 73.5L115.272 71.56C114.252 69.96 112.212 69 109.652 69C106.232 69 104.172 70.74 104.172 73.26C104.172 75.32 105.512 76.76 108.152 77.4L110.412 77.94C111.692 78.24 112.112 78.62 112.112 79.2C112.112 79.98 111.432 80.44 110.092 80.44C108.472 80.44 107.052 79.76 106.172 78.58L103.812 80.5ZM116.945 76.3C116.885 80.4 120.105 83.64 124.365 83.56C128.625 83.64 131.845 80.4 131.785 76.3C131.845 72.2 128.625 68.92 124.365 69C120.105 68.92 116.885 72.2 116.945 76.3ZM128.145 76.3C128.145 78.64 126.625 80.28 124.365 80.28C122.105 80.28 120.585 78.64 120.585 76.3C120.585 73.96 122.105 72.28 124.365 72.28C126.625 72.28 128.145 73.96 128.145 76.3ZM141.612 83.28H145.772L141.952 78.36C144.252 77.88 145.372 76.44 145.372 73.98C145.372 70.88 143.592 69.28 140.012 69.28H133.912V83.28H137.372V78.54H138.172L141.612 83.28ZM139.812 72.44C141.192 72.44 141.772 72.86 141.772 73.98C141.772 75.1 141.172 75.54 139.812 75.54H137.372V72.44H139.812Z" fill="white"/>
<mask id="mask0_1012_33226" style="mask-type:alpha" maskUnits="userSpaceOnUse" x="151" y="54" width="20" height="20">
<path d="M154.801 63.7947C154.358 64.224 153.97 64.7009 153.638 65.2255C153.305 65.7501 153.012 66.3145 152.759 66.9186C152.585 67.3955 152.434 67.8725 152.308 68.3494C152.181 68.8104 152.078 69.2714 151.999 69.7325C151.983 69.9391 151.967 70.1458 151.951 70.3525C151.935 70.5591 151.912 70.7658 151.88 70.9725V73.3571H156.63V70.9725C156.662 70.7658 156.693 70.5671 156.725 70.3763C156.741 70.1696 156.765 69.963 156.796 69.7563C157.033 68.7865 157.438 68.0155 158.008 67.4432C158.831 66.6166 159.955 66.2032 161.38 66.2032C163.375 66.2032 164.76 66.9981 165.536 68.5879C165.79 69.0171 165.988 69.8119 166.13 70.9725V73.3571H170.88V70.9725C170.817 70.5591 170.761 70.1537 170.713 69.7563C170.666 69.343 170.611 68.9296 170.548 68.5163C170.073 66.6245 169.249 65.0904 168.078 63.914C166.431 62.2606 164.198 61.4339 161.38 61.4339C159.385 61.4339 158 60.639 157.223 59.0493C156.97 58.62 156.773 57.8251 156.63 56.6646V54.28H151.88V56.6646C151.88 58.318 152.165 59.7727 152.735 61.0285C153.242 62.1096 153.93 63.0316 154.801 63.7947Z" fill="#278BFF"/>
</mask>
<g mask="url(#mask0_1012_33226)">
<path d="M172.916 52.3215H133.559V79.4644H172.916V52.3215Z" fill="url(#paint0_linear_1012_33226)"/>
<path d="M166.033 60.6066H168.941C170.011 60.6066 170.88 59.7351 170.88 58.66V54.28H166.033V60.6066Z" fill="#3078F2"/>
<path d="M161.38 57.28C167.731 57.28 172.88 62.4288 172.88 68.78C172.88 75.1313 167.731 80.28 161.38 80.28C155.029 80.28 149.88 75.1313 149.88 68.78C149.88 62.4288 155.029 57.28 161.38 57.28Z" fill="white"/>
</g>
</g>
<defs>
<filter id="filter0_d_1012_33226" x="0" y="0" width="224.88" height="141.562" filterUnits="userSpaceOnUse" color-interpolation-filters="sRGB">
<feFlood flood-opacity="0" result="BackgroundImageFix"/>
<feColorMatrix in="SourceAlpha" type="matrix" values="0 0 0 0 0 0 0 0 0 0 0 0 0 0 0 0 0 0 127 0" result="hardAlpha"/>
<feOffset dy="4"/>
<feGaussianBlur stdDeviation="27"/>
<feComposite in2="hardAlpha" operator="out"/>
<feColorMatrix type="matrix" values="0 0 0 0 0 0 0 0 0 0 0 0 0 0 0 0 0 0 0.25 0"/>
<feBlend mode="normal" in2="BackgroundImageFix" result="effect1_dropShadow_1012_33226"/>
<feBlend mode="normal" in="SourceGraphic" in2="effect1_dropShadow_1012_33226" result="shape"/>
</filter>
<linearGradient id="paint0_linear_1012_33226" x1="152.67" y1="58.0799" x2="158.5" y2="71.808" gradientUnits="userSpaceOnUse">
<stop offset="0.133068" stop-color="#3CB5F8"/>
<stop offset="0.238813" stop-color="#3491FA"/>
<stop offset="0.604133" stop-color="#2853E6"/>
<stop offset="1" stop-color="#43D6DE"/>
</linearGradient>
</defs>
</svg>
